<svg width="1333" height="809" viewBox="0 0 1333 809" fill="none" xmlns="http://www.w3.org/2000/svg">
<g opacity="0.504511">
<path fill-rule="evenodd" clip-rule="evenodd" d="M1231.51 615.939C1248.4 704.729 838.629 762.642 485.924 722.226C133.222 681.808 -28.5825 523.977 139.722 439.878C308.026 355.78 1214.61 527.151 1231.51 615.939Z" fill="#D3DED0"/>
</g>
<path fill-rule="evenodd" clip-rule="evenodd" d="M905.489 245.954C909.97 242.53 916.92 244.712 921.429 246.733C923.167 247.512 927.609 250.005 930.902 252.81C930.467 250.866 930.079 248.904 929.74 246.927C928.347 238.796 927.387 230.51 926.926 222.273C926.805 220.124 926.962 217.724 927.121 215.291V215.288C927.174 214.465 927.228 213.638 927.272 212.817C927.091 212.623 926.97 212.354 926.918 211.991C926.9 212.142 926.888 212.263 926.88 212.356C926.866 212.505 926.86 212.58 926.836 212.585C926.812 212.592 926.771 212.529 926.688 212.401C926.656 212.352 926.617 212.292 926.57 212.224C923.237 207.239 920.439 201.621 920.053 195.445C919.728 190.209 924.03 180.299 930.13 187.159C932.858 190.223 932.149 211.739 928.051 213.057C929.146 220.187 930.523 227.305 932.247 234.332C932.506 234.287 932.769 234.283 933.029 234.318C933.004 232.571 933.002 230.665 933.074 230.009C933.688 224.361 938.404 212.897 945.913 215.122C951.681 216.834 948.145 223.876 946.183 226.958C943.021 231.92 939.446 234.068 934.918 236.649C934.827 237.716 934.14 238.336 933.329 238.537C936.36 249.886 940.344 260.954 945.556 271.41L945.696 270.745C946.357 267.571 947.128 263.872 947.617 263.094C950.172 259.027 955.827 254.059 961.043 256.466C971.996 261.528 960.108 276.074 950.782 277.657C950.394 278.193 949.984 278.624 949.548 278.871C951.36 282.026 953.296 285.117 955.369 288.128C958.476 292.657 961.816 297.17 965.317 301.658C965.425 298.147 966.81 290.324 967.203 289.483C969.595 284.378 976.487 279.125 982.079 282.752C988.367 286.842 982.666 294.567 979.078 298.063C977.608 299.497 970.336 304.752 967.772 304.775C976.23 315.357 985.568 325.758 995.061 335.784C994.274 331.295 993.247 318.937 993.362 317.565C993.951 310.484 998.604 299.159 1007.77 301.919C1016.66 304.591 1012.72 316.356 1009.68 321.964C1007.84 325.359 1005.29 328.807 1002.21 331.175C1001.66 331.601 1000.94 331.95 1000.21 332.298C999.344 332.716 998.474 333.135 997.907 333.689C997.401 334.182 997.246 334.749 997.091 335.311C996.928 335.904 996.768 336.492 996.195 336.984C1001.33 342.378 1006.49 347.659 1011.58 352.795C1013.99 355.218 1016.43 357.595 1018.9 359.942C1020.26 359.381 1022.18 360.119 1022.08 362.034C1022.07 362.312 1022 362.552 1021.92 362.772C1023.79 364.514 1025.67 366.245 1027.57 367.956C1027.53 367.458 1027.54 366.754 1027.63 365.784C1026.26 367.729 1026.32 364.895 1026.36 362.734C1026.38 361.971 1026.39 361.293 1026.34 360.937C1026.14 359.549 1025.88 358.175 1025.62 356.802C1025.07 353.87 1024.51 350.948 1024.54 347.921C1024.6 341.498 1028.67 330.731 1037.22 334.557C1045.09 338.066 1042.23 347.586 1039.26 353.554C1037.38 357.331 1034.81 360.704 1032.12 363.932C1031.64 364.508 1031.11 365.288 1030.59 366.061C1029.8 367.208 1029.03 368.337 1028.46 368.758C1035.77 375.31 1043.25 381.669 1050.72 388.027L1050.73 388.031C1054.07 390.878 1057.42 393.726 1060.75 396.591C1060.9 395.962 1061.02 395.338 1061.12 394.756C1060.91 394.991 1060.63 395.101 1060.27 395.079C1060.17 394.597 1060.03 393.956 1059.86 393.186C1057.8 383.793 1051.53 355.182 1068.51 360.727C1080.95 364.801 1072.17 389.714 1062.89 398.429C1068.52 403.295 1074.1 408.224 1079.55 413.299C1083.49 416.971 1087.31 420.768 1090.99 424.694C1089.09 419.611 1087.29 413.033 1088.47 407.798C1090.19 400.178 1098.22 392.985 1106.06 397.32C1115.84 402.747 1108.32 410.161 1101.26 417.113C1097.66 420.662 1094.18 424.092 1093.19 427.074C1104.89 439.948 1114.87 454.251 1121.55 470.542C1128.8 488.26 1135.54 512.067 1131.81 531.888C1132.5 523.172 1129.56 512.229 1127.49 504.543C1127.21 503.496 1126.95 502.511 1126.71 501.599C1123.6 489.678 1119.19 478.081 1113.38 467.225C1104.07 449.838 1091.78 435.08 1077.58 421.68C1074.35 422.808 1070.83 424.895 1067.93 426.623C1066.14 427.684 1064.59 428.61 1063.46 429.096C1058.03 431.441 1047.6 434.804 1044.14 427.415C1040.74 420.151 1049.42 416.087 1054.8 414.459C1060.01 412.888 1064.69 413.078 1069.55 414.366C1062.03 407.697 1054.33 401.24 1046.64 394.784L1046.64 394.783C1045.22 393.594 1043.81 392.407 1042.39 391.219C1040.44 392.825 1038.28 395.146 1035.98 397.61C1028.7 405.431 1020.07 414.698 1012.37 407.127C1000.74 395.702 1022.98 384.09 1032.45 384.997C1033.62 385.108 1034.74 385.354 1035.84 385.687C1026.18 377.478 1016.66 369.099 1007.67 360.131C1006.05 360.427 1003.48 362.804 1000.4 365.661C993.459 372.081 983.907 380.918 976.712 373.96C971.518 368.937 973.298 361.113 978.318 356.64C983.357 352.148 990.664 352.155 996.875 353.668C999.56 354.319 1002.04 355.562 1004.35 357.075C1004.44 357.081 1004.54 357.086 1004.63 357.091C995.781 348.173 986.874 339.055 978.296 329.626C978.146 329.674 977.993 329.725 977.839 329.775C977.321 330.41 976.453 330.643 975.657 330.502C975.219 330.653 974.77 330.808 974.313 330.966C967.518 333.313 958.786 336.33 952.013 335.029C947.03 334.071 942.507 330.015 946.727 325.022C950.157 320.961 959.462 321.543 964 322.505C966.215 322.976 968.626 324.337 971.046 325.704C972.061 326.277 973.079 326.852 974.084 327.362C974.345 326.835 974.801 326.497 975.319 326.334C966.849 316.858 958.767 307.056 951.436 296.827C949.218 297.171 946.756 298.147 944.217 299.154C938.11 301.575 931.555 304.174 926.851 298.576C919.906 290.312 932.967 285.488 939.176 286.273C941.273 286.538 943.34 287.132 945.336 287.919C940.002 279.497 935.928 270.496 933.065 261.041C933.038 261.055 933.012 261.069 932.986 261.083V261.085C932.946 261.107 932.906 261.13 932.856 261.152C932.898 261.127 932.937 261.104 932.975 261.079C933.003 261.061 933.032 261.043 933.061 261.025C932.776 260.08 932.5 259.13 932.24 258.176C931.755 257.906 931.302 257.707 931.084 257.626C933.906 259.572 922.004 260.525 919.776 260.704C914.848 261.098 908.246 261.245 904.631 257.203C901.595 253.809 901.773 248.794 905.489 245.954ZM1132.34 531.917C1132.13 534.788 1131.61 537.419 1130.65 539.588C1131.37 537.118 1131.93 534.552 1132.34 531.917Z" fill="#D3DED0"/>
<path opacity="0.2" fill-rule="evenodd" clip-rule="evenodd" d="M277.367 62.5086C274.097 60.0344 269.022 61.6149 265.728 63.0779C264.459 63.6423 261.216 65.4463 258.809 67.4762C259.128 66.0698 259.412 64.6513 259.661 63.2212C260.681 57.3409 261.385 51.3493 261.725 45.3927C261.813 43.8391 261.699 42.1034 261.586 40.3449L261.584 40.3435C261.546 39.7482 261.507 39.1502 261.476 38.5558C261.608 38.4153 261.697 38.2212 261.734 37.9583C261.747 38.0673 261.755 38.1548 261.761 38.2215C261.772 38.3298 261.776 38.384 261.794 38.3884C261.81 38.3929 261.841 38.347 261.902 38.2547C261.925 38.219 261.954 38.1762 261.987 38.1267C264.423 34.5206 266.469 30.4574 266.752 25.9919C266.991 22.2046 263.854 15.0407 259.398 20.0034C257.405 22.2197 257.914 37.7779 260.906 38.7299C260.104 43.8857 259.096 49.0331 257.835 54.1151C257.646 54.0822 257.454 54.0794 257.264 54.1052C257.282 52.8419 257.285 51.4634 257.233 50.9893C256.786 46.9061 253.347 38.6176 247.865 40.2299C243.652 41.4692 246.23 46.5598 247.663 48.7878C249.969 52.3749 252.578 53.9273 255.883 55.7917C255.949 56.5627 256.451 57.0108 257.043 57.1562C254.826 65.3635 251.914 73.3687 248.104 80.9307L248.003 80.4502C247.52 78.1557 246.958 75.4806 246.601 74.9188C244.738 71.9788 240.61 68.3886 236.801 70.1308C228.801 73.7946 237.477 84.3089 244.286 85.4496C244.569 85.837 244.867 86.1485 245.186 86.327C243.862 88.6098 242.447 90.8451 240.933 93.0228C238.662 96.2986 236.223 99.5638 233.665 102.81C233.587 100.272 232.578 94.6151 232.291 94.0075C230.547 90.3171 225.517 86.5215 221.433 89.1459C216.84 92.1047 221.001 97.6895 223.618 100.217C224.69 101.253 229.998 105.049 231.871 105.065C225.69 112.721 218.869 120.245 211.935 127.497C212.51 124.251 213.264 115.315 213.181 114.323C212.754 109.203 209.361 101.016 202.67 103.014C196.176 104.951 199.045 113.456 201.264 117.51C202.609 119.964 204.468 122.457 206.712 124.168C207.117 124.476 207.645 124.727 208.172 124.979C208.808 125.281 209.442 125.583 209.857 125.984C210.227 126.34 210.34 126.75 210.451 127.156C210.57 127.585 210.688 128.01 211.105 128.365C207.357 132.268 203.583 136.09 199.864 139.804C198.108 141.557 196.321 143.278 194.516 144.975C193.529 144.571 192.122 145.104 192.194 146.489C192.205 146.69 192.253 146.863 192.316 147.022C190.948 148.283 189.572 149.534 188.184 150.773C188.216 150.413 188.207 149.904 188.144 149.202C189.141 150.609 189.1 148.559 189.069 146.998C189.059 146.445 189.048 145.954 189.086 145.698C189.233 144.693 189.424 143.7 189.614 142.707C190.02 140.587 190.424 138.473 190.405 136.285C190.364 131.641 187.4 123.856 181.151 126.626C175.405 129.166 177.492 136.05 179.657 140.364C181.026 143.094 182.902 145.532 184.864 147.866C185.214 148.281 185.601 148.846 185.985 149.404C186.555 150.233 187.117 151.05 187.533 151.354C182.197 156.093 176.737 160.694 171.276 165.295H171.275L171.273 165.297C168.826 167.358 166.381 169.418 163.946 171.491C163.841 171.037 163.753 170.586 163.678 170.163C163.83 170.334 164.037 170.414 164.303 170.399C164.374 170.05 164.476 169.586 164.6 169.029C166.107 162.237 170.696 141.544 158.297 145.561C149.211 148.511 155.613 166.524 162.384 172.822C158.272 176.341 154.197 179.908 150.219 183.58C147.339 186.236 144.546 188.984 141.857 191.823C143.25 188.147 144.562 183.39 143.704 179.604C142.456 174.097 136.593 168.898 130.865 172.035C123.724 175.964 129.214 181.321 134.361 186.345C136.989 188.911 139.528 191.389 140.251 193.546C131.708 202.859 124.41 213.205 119.533 224.988C114.228 237.802 109.301 255.019 112.014 269.351C111.515 263.049 113.668 255.134 115.178 249.576C115.385 248.819 115.578 248.106 115.752 247.446C118.023 238.825 121.248 230.437 125.494 222.587C132.298 210.011 141.282 199.334 151.653 189.639C154.012 190.453 156.576 191.961 158.698 193.211C160.001 193.976 161.136 194.646 161.958 194.997C165.924 196.692 173.538 199.119 176.067 193.775C178.554 188.519 172.214 185.585 168.285 184.409C164.488 183.275 161.064 183.415 157.52 184.347C163.01 179.523 168.632 174.85 174.254 170.179C175.289 169.32 176.322 168.461 177.356 167.601C178.784 168.761 180.36 170.439 182.034 172.22C187.348 177.872 193.643 184.569 199.271 179.091C207.764 170.826 191.533 162.438 184.616 163.098C183.765 163.178 182.944 163.356 182.143 163.598C189.201 157.658 196.148 151.596 202.72 145.108C203.898 145.321 205.774 147.039 208.028 149.103C213.091 153.743 220.061 160.13 225.317 155.095C229.11 151.462 227.816 145.805 224.152 142.572C220.473 139.325 215.139 139.334 210.603 140.431C208.643 140.902 206.834 141.801 205.148 142.897C205.075 142.9 205.007 142.904 204.939 142.908C211.405 136.456 217.91 129.86 224.177 123.039C224.286 123.074 224.398 123.11 224.511 123.146C224.889 123.606 225.524 123.774 226.104 123.672C226.422 123.779 226.746 123.89 227.077 124.004L227.084 124.006C232.044 125.701 238.42 127.88 243.365 126.936C247.004 126.242 250.308 123.307 247.229 119.697C244.726 116.762 237.932 117.187 234.618 117.885C233 118.226 231.239 119.211 229.473 120.2C228.73 120.615 227.988 121.031 227.254 121.401C227.062 121.02 226.73 120.774 226.352 120.657C232.539 113.802 238.445 106.711 243.801 99.3122C245.422 99.5602 247.217 100.265 249.07 100.991C253.529 102.74 258.314 104.617 261.751 100.568C266.825 94.5891 257.29 91.1058 252.756 91.6758C251.225 91.868 249.716 92.2989 248.258 92.8677C252.157 86.7763 255.133 80.2658 257.228 73.4286C257.247 73.4387 257.267 73.4492 257.285 73.4595C257.314 73.4759 257.344 73.4923 257.38 73.508C257.349 73.4912 257.321 73.4735 257.294 73.4559C257.273 73.4429 257.252 73.4299 257.23 73.4173C257.44 72.7333 257.64 72.0462 257.831 71.3566C258.185 71.161 258.516 71.017 258.675 70.9577C256.614 72.3666 265.304 73.0512 266.931 73.1794C270.529 73.4622 275.348 73.5662 277.99 70.6428C280.207 68.1872 280.08 64.561 277.367 62.5086ZM111.475 268.785C111.634 270.7 112.107 272.446 113.036 273.877C112.354 272.242 111.842 270.538 111.475 268.785Z" fill="#C1DEE2"/>
<g opacity="0.7">
<path fill-rule="evenodd" clip-rule="evenodd" d="M1035.15 400.2C1052.79 399.285 1074.6 409.579 1076.48 428.747C1077.85 442.674 1077.43 456.561 1079.54 470.469C1081.23 481.582 1084.81 492.251 1089.69 502.375C1094.38 512.11 1104.12 520.398 1106.65 530.798C1108.26 537.426 1107.36 546.748 1105.13 553.229C1102.43 561.111 1103.87 560.488 1109.26 567.101C1119.82 580.061 1129.34 593.351 1136.06 608.829C1145.75 631.123 1152.11 657.182 1148.51 681.585C1148.05 684.684 1147.51 695.805 1143.24 696.582C1138.47 697.452 1140.7 691.092 1140.96 689.037C1142.58 675.928 1144.02 664.469 1142.06 651.155C1134.52 599.784 1097.65 565.939 1073.65 522.34C1072.33 520.092 1069.55 514.738 1067.61 511.206C1064.55 505.629 1061.48 495.019 1057.34 490.883C1049.54 483.095 1056.71 498.755 1058.23 501.744C1060.15 505.526 1062.26 509.545 1064.23 512.858C1073.24 528.219 1083.29 544.984 1092.59 560.819C1052.36 569.981 1024.04 521.635 1013.24 489.851C1004.35 463.666 993.707 402.441 1035.15 400.2Z" fill="#56919C"/>
<path fill-rule="evenodd" clip-rule="evenodd" d="M1271.57 351.57C1242.07 353.91 1223.14 373.362 1214.33 400.569C1209.58 415.231 1209.04 430.293 1206.4 445.361C1202.43 468.03 1193.89 485.21 1177.19 501.361C1172.02 506.363 1168.21 511.498 1165.5 516.993C1160.12 522.479 1155.44 528.686 1152 536.276C1147.61 545.969 1146.37 557.599 1151.44 567.262C1152.8 569.86 1156.21 575.075 1159.73 577.444C1146.53 605.55 1139.27 636.333 1140.09 667.077C1140.59 685.634 1141.49 704.201 1142.55 722.736C1142.83 727.713 1144.46 735.931 1146.89 727.585C1149.12 719.95 1146.32 707.965 1146.07 699.99C1144.81 661.135 1143.73 625.807 1159.73 589.507C1161.41 585.701 1163.19 581.927 1165.04 578.184C1165.15 578.121 1165.25 578.044 1165.35 577.971C1165.42 578.025 1165.49 578.083 1165.56 578.137C1165.67 577.926 1165.84 577.675 1166.03 577.395C1166.56 576.846 1167.02 576.153 1167.46 575.381C1168.88 573.415 1170.49 571.104 1170.5 569.84C1170.5 569.831 1170.49 569.815 1170.49 569.805C1180.39 553.642 1191.74 538.371 1203.32 523.397C1203.24 523.507 1215.89 506.28 1213.94 515.806C1212.99 520.398 1203.68 529.14 1199.92 534.003C1191.61 544.82 1181.84 558.529 1173.73 571.784C1172.64 572.411 1171.09 575.491 1169.98 577.786C1169.36 578.949 1168.79 580.12 1168.22 581.142C1196.98 590.639 1219.34 571.507 1234.6 549.255C1234.62 549.228 1234.63 549.2 1234.65 549.175C1239.29 543.026 1244.05 536.921 1249.99 532.06C1259.9 523.948 1270.51 522.517 1282.2 518.526C1314.06 507.641 1327.61 466.355 1331.91 435.721C1336.76 401.16 1313.01 348.163 1271.57 351.57Z" fill="#89C5CC"/>
<path fill-rule="evenodd" clip-rule="evenodd" d="M1213.31 254.786C1183.05 286.274 1168.43 329.951 1156.85 371.011C1143.92 416.87 1135.38 463.437 1135.05 511.117C1134.84 542.444 1133.99 573.965 1135.82 605.254C1136.46 616.367 1137.57 627.499 1139.33 638.491C1139.48 639.396 1143.42 663.941 1147.19 658.221C1149.34 654.969 1143.15 632.759 1142.69 629.06C1140.06 608.224 1139.45 587.236 1139.57 566.25C1139.78 531.697 1138.77 497.322 1142.27 462.897C1142.79 457.756 1143.2 452.358 1144.42 447.33C1145.72 441.984 1144.07 444.318 1148.29 442.201C1152.4 440.144 1157.47 440.438 1161.73 437.857C1178.62 427.618 1187.26 401.317 1193.98 384.061C1201.67 364.328 1206.35 343.284 1210.08 322.517C1212.82 307.26 1214.78 292.095 1215.89 276.64C1216.24 271.769 1216.26 266.676 1217.22 261.887C1217.48 260.595 1218.77 258.31 1218.72 257.166C1218.62 254.744 1217.16 253.32 1217.04 251.286C1215.77 252.425 1214.53 253.593 1213.31 254.786Z" fill="#89C5CC"/>
<path d="M1142.61 768.619C1194.7 768.619 1236.93 747.512 1236.93 721.474C1236.93 695.436 1194.7 674.328 1142.61 674.328C1090.52 674.328 1048.3 695.436 1048.3 721.474C1048.3 747.512 1090.52 768.619 1142.61 768.619Z" fill="#89C5CC"/>
<path fill-rule="evenodd" clip-rule="evenodd" d="M1207.25 591.772C1230.59 590.052 1256.66 608.879 1267.92 628.471C1276.99 644.266 1275.47 665.009 1269.86 681.792C1266.1 693.027 1257.91 709.046 1244.25 709.202C1227.15 709.397 1226.33 688.273 1226 675.925C1225.56 659.507 1223.48 645.205 1210.54 634.015C1208.95 632.634 1207.27 631.341 1205.59 630.048C1204.1 628.9 1202.62 627.753 1201.18 626.544C1200.96 626.35 1200.72 626.157 1200.49 625.964C1195.92 622.118 1191.11 618.081 1190.53 611.742C1189.68 602.559 1194.87 600.905 1202.78 602.612C1203.04 602.667 1203.73 602.929 1204.68 603.287C1208.72 604.819 1217.35 608.09 1215.72 604.181C1215.1 602.709 1212.86 601.541 1210.02 600.667C1202.69 599.87 1193.95 598.945 1191.43 599.498C1164.31 605.447 1153.75 643.012 1150.94 666.879C1150.64 669.455 1150.39 672.04 1150.18 674.628H1145.2C1145.54 668.378 1146 662.138 1147.04 655.956C1151.04 632.315 1163.54 597.592 1190.96 593.755C1191.97 593.613 1195.69 593.588 1200.2 593.853C1202.33 592.66 1204.73 591.937 1207.25 591.772Z" fill="#56919C"/>
</g>
<g opacity="0.5">
<path fill-rule="evenodd" clip-rule="evenodd" d="M230.76 227.99C236.189 220.25 246.265 200.594 253.906 197.828C258.828 196.047 257.393 214.473 257.454 217.986C257.69 231.579 256.367 245.086 254.733 258.565C251.787 282.875 242.158 304.523 228.95 325.213C222.154 335.859 214.181 346.635 203.14 353.277C198.059 356.337 191.944 356.848 186.924 359.484C181.078 362.552 184.262 360.072 181.627 366.161C177.97 374.616 176.799 385.524 175.107 394.545C167.335 435.96 148.519 654.883 151.781 697.008C152.07 700.742 146.864 701.634 146.603 697.076C145.222 672.908 157.178 505.537 163.211 450.803C169.244 396.068 175.348 347.714 181.468 328.777C188.895 305.802 202.305 278.175 213.469 256.75C218.655 246.798 224.308 237.186 230.76 227.99Z" fill="#56919C"/>
<path fill-rule="evenodd" clip-rule="evenodd" d="M271.059 496.439C285.186 486.07 300.48 505.639 287.694 516.01C280.627 521.742 273.238 519.704 269.079 514.926C266.379 518.218 263.852 521.659 261.423 524.563C254.024 533.42 247.032 542.486 240.348 551.764C226.464 571.041 214.567 591.405 202.126 611.396C189.85 631.128 177.671 650.96 166.543 671.191C157.117 688.331 144.553 708.496 141.325 727.287C146.222 687.434 164.803 649.128 186.93 613.997C208.877 579.151 234.063 541.098 268.044 513.6C264.586 508.515 264.49 501.257 271.059 496.439Z" fill="#C1DEE2"/>
<path fill-rule="evenodd" clip-rule="evenodd" d="M2.97061 399.246C10.8765 400.79 23.7948 418.671 30.3117 425.483C38.0566 433.579 45.0831 442.207 51.7065 451.249C65.9651 470.709 78.717 491.399 89.5603 512.975C107.237 548.148 121.4 584.255 131.678 622.556C137.97 646.001 142.043 670.303 144.457 694.433C144.913 698.985 149.686 734.072 142.808 735.017C136.624 735.868 138.534 708.375 138.236 704.635C134.863 662.443 124.758 621.39 110.704 581.621C107.642 572.958 104.798 562.347 99.9016 554.551C96.3759 548.936 99.8764 550.894 93.6803 548.769C88.3601 546.943 82.2983 547.39 76.8503 545.154C65.0148 540.302 55.5381 530.882 47.231 521.407C31.0876 502.992 18.2946 483.07 11.6261 459.474C7.92705 446.392 4.52771 433.233 2.64128 419.745C2.1533 416.259 -2.12162 398.25 2.97061 399.246Z" fill="#56919C"/>
<path fill-rule="evenodd" clip-rule="evenodd" d="M34.1698 101.757C63.9499 153.39 88.422 210.108 104.223 267.555C113.798 302.361 120.493 338.078 127.146 373.535C137.445 428.438 147.188 483.336 149.959 539.215C152.748 595.416 158.26 660.239 139.854 714.37C149.049 659.413 140.294 600.913 138.744 545.615C138.003 519.216 135.857 493.075 133.041 466.83C130.308 441.372 125.845 416.034 121.688 390.776C119.664 378.474 117.537 366.192 115.372 353.916C114.724 350.253 114.452 339.385 112.128 336.883C109.789 334.364 97.8554 333.337 94.1088 331.489C86.5643 327.768 79.4676 322.481 73.187 316.895C61.1469 306.185 50.6727 292.193 42.4055 278.399C23.2774 246.485 15.63 207.536 16.0166 170.574C16.0907 163.398 27.6349 86.1206 22.9986 85.0564C23.2778 84.7295 23.5418 84.3921 23.7907 84.041C27.3008 89.9165 30.7452 95.8318 34.1698 101.757Z" fill="#89C5CC"/>
<path fill-rule="evenodd" clip-rule="evenodd" d="M355.596 287.977C356.056 287.314 359.047 282.707 357.54 283.001C360.606 282.401 353.323 288.083 360.963 284.597C357.335 288.022 359.429 292.471 359.477 297.081C359.556 304.566 358.304 311.988 356.894 319.311C354.665 330.888 351.346 342.144 346.529 352.911C336.029 376.377 318.199 398.965 297.033 413.636C286.583 420.878 276.343 423.345 264.426 426.679C256.897 428.786 256.3 432.679 252.304 439.982C243.986 455.192 235.816 470.347 228.479 486.071C219.719 504.848 211.215 523.644 203.193 542.75C176.169 607.107 154.174 673.784 142.624 742.786C142.341 702.124 151.75 660.243 163.618 621.484C172.264 593.246 183.519 566.024 195.524 539.079C198.432 532.551 202.84 524.154 204.077 516.947C204.941 511.896 202.297 507.041 201.086 501.72C196.365 481.006 196.704 457.799 200.848 436.974C205.419 414.009 218.636 403.35 240.995 400.098C249.172 398.907 259.566 399.344 267.064 395.857C275.233 392.063 278.602 379.585 283.248 371.577C295.725 350.062 310.549 329.429 327.571 311.302C332.284 306.282 337.353 301.65 342.73 297.358C346.122 294.65 353.286 291.313 355.596 287.977Z" fill="#89C5CC"/>
<path fill-rule="evenodd" clip-rule="evenodd" d="M98.4894 706.27C97.914 702.371 100.937 698.87 104.88 698.87H184.231C188.172 698.87 191.196 702.371 190.621 706.27L184.488 747.847C182.618 760.521 171.74 769.911 158.925 769.911H130.186C117.37 769.911 106.492 760.521 104.622 747.847L98.4894 706.27Z" fill="#C1DEE2"/>
</g>
<path d="M64.6403 769.911C81.9279 769.911 95.9423 758.766 95.9423 745.018C95.9423 731.27 81.9279 720.125 64.6403 720.125C47.3527 720.125 33.3384 731.27 33.3384 745.018C33.3384 758.766 47.3527 769.911 64.6403 769.911Z" fill="#D3DED0"/>
<path fill-rule="evenodd" clip-rule="evenodd" d="M73.3066 702.97C72.2388 704.815 71.2867 706.699 70.4456 708.609C70.4159 704.673 70.6336 700.709 71.228 696.691C72.2441 689.806 73.796 682.959 75.2543 676.121C76.3023 671.208 76.236 662.383 80.2135 658.467C81.3042 657.621 81.5668 659.282 81.5668 660.001C81.5806 660.154 81.5638 657.062 80.5051 657.6C74.2123 660.849 72.1734 671.066 70.1587 676.181C67.2193 683.648 64.7184 691.28 63.6885 699.048C63.4283 701.01 63.2867 702.972 63.254 704.93C63.0401 704.407 62.8392 703.879 62.617 703.357C58.9849 694.841 54.0835 686.531 47.9704 678.867C46.4656 676.981 27.5455 658.375 26.0644 661.223C26.2105 661.637 26.5165 661.98 26.983 662.253C27.0104 662.284 27.0112 662.267 26.9953 662.22C28.1064 664.016 31.2658 666.786 32.2499 668.36C34.7265 672.316 36.6513 676.515 38.6074 680.634C42.74 689.34 46.5737 698.132 50.2901 706.943C51.1555 708.995 52.0574 711.036 52.9776 713.07C43.4921 699.393 30.838 686.975 13.4187 679.866C19.3682 682.892 23.2688 688.584 27.2867 692.944C32.1326 698.202 37.2366 703.318 42.0916 708.57C47.8182 714.766 54.5561 721.291 60.0643 728.147C65.3995 739.345 70.5841 750.556 73.7846 762.326C72.4732 758.26 73.6818 752.639 73.4574 748.371C73.2792 744.973 72.8819 741.603 72.3377 738.24C73.0106 739.757 73.5904 741.275 73.8531 742.688C73.6133 740.319 73.3371 737.966 73.0402 735.624C73.8021 733.432 74.5502 731.387 75.0557 729.702C77.6456 721.059 80.7296 712.564 84.9294 704.286C88.8156 696.628 93.2733 689.066 98.1306 681.736C100.396 678.318 102.694 674.914 104.976 671.502C106.47 669.269 107.892 665.695 109.973 663.555C96.527 675.845 81.837 688.223 73.3066 702.97Z" fill="#D3DED0"/>
<path fill-rule="evenodd" clip-rule="evenodd" d="M1293.3 141.942C1289.45 129.089 1280.4 119.028 1271 109.811C1252.72 91.866 1242.88 80.771 1236.36 54.521C1232.53 39.0827 1228.63 22.723 1216.47 11.5223C1207.62 3.36578 1192.38 -3.48711 1180.54 2.35351C1162.33 13.2215 1157.44 35.5244 1159.27 55.4954C1161.55 80.248 1173.12 95.5105 1195.34 104.627C1207.85 109.762 1216.18 116.538 1222.97 128.343C1228.41 137.783 1231.58 149.604 1238.41 158.161C1248.62 170.955 1261.4 176.641 1277.15 174.516C1262.4 147.377 1245.16 119.983 1224.37 97.1321C1222.42 94.8349 1210.94 86.0419 1213.26 82.1268C1215.81 77.816 1227.59 94.0094 1227.51 93.9115C1233.55 100.846 1239.14 108.215 1244.63 115.654C1244.62 115.661 1244.6 115.666 1244.59 115.672C1250.24 123.307 1255.85 131.053 1261.35 138.896C1263.57 142.215 1265.74 145.574 1267.81 149.019C1270.86 154.073 1275.69 168.418 1280.66 171.526C1281.72 172.19 1282.72 172.562 1283.63 172.715C1287.03 178.275 1290.33 183.88 1293.48 189.55C1301.68 204.36 1308.72 219.997 1311.97 236.717C1312.91 241.599 1312.24 259.854 1315.57 263.377C1321.66 269.821 1319.87 257.411 1319.51 253.665C1316.49 222.649 1305.35 196.224 1289.18 170.148C1294.15 163.661 1294.86 147.15 1293.3 141.942Z" fill="#D3DED0"/>
<path fill-rule="evenodd" clip-rule="evenodd" d="M1084.64 156.929C1091.07 149.364 1106.5 148.08 1115.95 148.586C1127.63 149.213 1139.63 152.057 1150.75 155.495C1169.06 161.158 1186.86 171.494 1202.98 181.498C1204.93 182.703 1228.87 197.098 1226.75 199.625C1224.65 202.128 1201.15 185.028 1195.91 182.08C1184.73 175.79 1174.48 168.35 1162.15 164.195C1149.39 159.892 1135.9 158.189 1122.48 158.306C1120.76 158.322 1115.15 157.122 1115.02 159.669C1114.91 162.159 1124.2 160.86 1125.84 160.875C1132.61 160.937 1139.42 161.574 1146.09 162.747C1158.59 164.944 1170.35 169.369 1181.05 176.158C1178.07 183.103 1170.9 186.305 1163.39 184.568C1156.9 183.065 1150.57 179.36 1144.21 178.288C1139.83 177.551 1135.44 177.99 1131.2 179.223C1120 182.477 1113.54 189.144 1101.22 184.507C1091.57 180.871 1075.42 167.809 1084.64 156.929Z" fill="#D3DED0"/>
<path fill-rule="evenodd" clip-rule="evenodd" d="M904.972 355.605C896.605 360.646 888.385 363.082 884.526 362.088C874.85 359.594 873.96 324.205 881.447 310.254C888.934 296.303 927.422 290.222 929.362 317.864C930.036 327.458 926.006 336.019 920.053 343.006L930.728 392.747H899.72L904.972 355.605Z" fill="#915B3C"/>
<path fill-rule="evenodd" clip-rule="evenodd" d="M919.1 311.373C901.207 311.501 888.757 310.747 881.632 308.789C881.957 302.727 888.261 295.873 904.888 295.873C923.387 295.873 933.312 306.652 933.312 319.123C933.312 330.516 925.976 344.391 920.392 344.956C918.947 344.64 917.713 342.901 916.486 340.504C918.783 339.416 920.392 336.903 920.392 333.977C920.392 330.053 917.5 326.873 913.932 326.873C912.636 326.873 911.43 327.292 910.419 328.014C908.072 324.229 905.131 321.399 901.012 321.706L903.596 313.956L919.1 312.664V311.373Z" fill="#4A312C"/>
<path fill-rule="evenodd" clip-rule="evenodd" d="M933.312 499.955L869.899 660.413L827.368 796.067H810.573L878.178 499.955H933.312Z" fill="#915B3C"/>
<path fill-rule="evenodd" clip-rule="evenodd" d="M946.08 499.955C946.756 556.341 956.604 632.255 958.177 635.771C959.751 639.286 1066.81 725.166 1066.81 725.166L1055.24 737.541C1055.24 737.541 928.923 663.91 923.078 654.09C917.233 644.269 898.203 553.898 882.924 499.955H946.08Z" fill="#915B3C"/>
<path fill-rule="evenodd" clip-rule="evenodd" d="M1064.94 722.848C1065.37 721.397 1066.9 720.532 1068.32 721.052C1070.91 721.998 1074.7 723.53 1076.38 724.94C1079.06 727.186 1083.45 732.386 1083.45 732.386C1080.84 735.491 1036.61 788.193 1036.61 788.193C1036.61 788.193 1027.59 784.334 1030.95 779.166C1034.31 773.998 1036.45 770.511 1036.45 770.511L1046.65 734.869C1046.85 734.168 1047.59 733.773 1048.28 733.993L1053.73 735.72C1053.73 735.72 1059.39 733.08 1061.67 730.366C1063.06 728.715 1064.24 725.282 1064.94 722.848Z" fill="#E4E4E4"/>
<path fill-rule="evenodd" clip-rule="evenodd" d="M830.664 788.361C832.049 787.753 833.695 788.369 834.21 789.791C835.151 792.383 836.413 796.273 836.413 798.465C836.413 801.958 835.249 808.661 835.249 808.661C831.195 808.661 762.378 808.661 762.378 808.661C762.378 808.661 759.537 799.273 765.657 798.524C771.778 797.776 775.825 797.173 775.825 797.173L809.695 782.077C810.36 781.78 811.138 782.091 811.416 782.764L813.593 788.045C813.593 788.045 819.258 790.687 822.799 790.687C824.956 790.687 828.343 789.382 830.664 788.361Z" fill="#E4E4E4"/>
<path fill-rule="evenodd" clip-rule="evenodd" d="M890.676 782.095L810.827 773.431L875.173 499.955H941.524L890.676 782.095Z" fill="#00112C"/>
<path fill-rule="evenodd" clip-rule="evenodd" d="M1050.29 705.199L997.911 767.181C997.911 767.181 915.159 676.824 901.422 649.265C887.685 621.706 876.724 499.955 876.724 499.955H957.242C957.242 499.955 963.229 607.066 965.313 612.051C967.398 617.035 1050.29 705.199 1050.29 705.199Z" fill="#002743"/>
<path fill-rule="evenodd" clip-rule="evenodd" d="M790.713 515.142L827.312 479.446L839.467 500.474L801.409 522.907C791.867 537.936 786.262 544.429 784.595 542.388C783.19 540.666 783.834 538.779 784.427 537.042C784.89 535.688 785.32 534.425 784.728 533.401C783.376 531.06 775.735 532.4 768.539 533.982C761.341 535.563 763.006 532.029 764.536 530.185C771.338 524.696 780.063 519.682 790.713 515.142ZM1006.44 567.002C1002.65 559.323 989.761 484.481 989.761 484.481L962.762 484.587C962.762 484.587 987.768 565.291 989.761 570.229C992.35 576.643 987.952 585.962 984.97 592.282C984.509 593.26 984.082 594.166 983.719 594.978C987.857 596.829 989.845 594.592 991.94 592.233C994.307 589.569 996.811 586.75 1002.71 589.491C1004.98 590.552 1007.14 591.803 1009.25 593.028C1016.52 597.254 1023.2 601.138 1032.29 595.53C1033.73 594.641 1035.31 591.294 1031.5 588.679C1021.99 582.162 1008.29 570.757 1006.44 567.002Z" fill="#915B3C"/>
<path fill-rule="evenodd" clip-rule="evenodd" d="M913.034 371.218L901.862 369.302C882.627 417.339 849.046 460.987 801.119 500.245L837.335 544.234C885.258 488.336 914.798 430.664 913.034 371.218Z" fill="#BF9400"/>
<path fill-rule="evenodd" clip-rule="evenodd" d="M961.735 511.58H862.253C862.253 511.58 896.825 427.541 896.825 368.801L926.834 364.331C950.418 402.252 957.078 448.94 961.735 511.58Z" fill="#C7D1D9"/>
<path fill-rule="evenodd" clip-rule="evenodd" d="M1006.95 554.204C996.075 431.492 927.493 364.331 927.493 364.331L927.469 364.352C927.466 364.345 927.46 364.338 927.457 364.331H925.498C921.982 364.452 914.787 364.767 914.787 364.767L907.537 385.484C906.386 423.373 894.099 538.196 894.099 538.196H959.216C959.106 543.46 958.86 548.799 958.466 554.204H1006.95Z" fill="#FFCC38"/>
<path fill-rule="evenodd" clip-rule="evenodd" d="M959.205 538.705C959.725 515.778 957.691 494.251 954.297 474.77C952.522 497.887 948.812 525.701 941.064 538.705H959.205Z" fill="black" fill-opacity="0.1"/>
<path fill-rule="evenodd" clip-rule="evenodd" d="M944.796 498.663L912.64 483.718V498.663H944.796Z" fill="white" fill-opacity="0.2"/>
<path fill-rule="evenodd" clip-rule="evenodd" d="M605.064 449.896C613.43 454.937 621.651 457.373 625.51 456.379C635.186 453.885 636.075 418.496 628.588 404.545C621.102 390.594 582.613 384.513 580.673 412.155C580 421.749 584.029 430.31 589.983 437.296L579.308 487.038H610.315L605.064 449.896Z" fill="#DCAE92"/>
<path fill-rule="evenodd" clip-rule="evenodd" d="M523.265 648.495H623.077L636.155 808.661H487.577L523.265 648.495Z" fill="#CED9E3"/>
<path fill-rule="evenodd" clip-rule="evenodd" d="M523.265 648.495H553.963L572.336 808.661H487.577L523.265 648.495Z" fill="black" fill-opacity="0.15"/>
<path fill-rule="evenodd" clip-rule="evenodd" d="M677.916 680.227C666.7 704.008 649.175 761.738 649.175 761.738L664.053 768.534C664.053 768.534 701.806 707.85 724.878 666.367C723.803 675.706 722.709 686.22 721.695 697.272C719.291 723.454 721.694 780.021 722.987 796.361C723.8 806.63 737.757 804.479 739.059 796.335C739.28 794.955 740.179 790.111 741.522 782.886C748.102 747.453 765.324 654.718 765.354 632.012C765.367 622.875 747.511 614.667 736.869 621.056C729.561 613.258 715.726 608.764 707.778 621.644C702.725 629.833 690.72 653.08 677.916 680.227Z" fill="#DCAE92"/>
<path fill-rule="evenodd" clip-rule="evenodd" d="M650.238 740.364L701.306 619.417C713.541 599.741 747.842 623.42 743.67 634.832C734.198 660.739 686.026 744.613 683.203 752.332L650.238 740.364Z" fill="#00112C"/>
<path fill-rule="evenodd" clip-rule="evenodd" d="M651.225 754.65C650.33 753.431 648.597 753.142 647.439 754.115C645.327 755.891 642.29 758.627 641.193 760.526C639.446 763.551 637.102 769.938 637.102 769.938C640.613 771.965 700.209 806.364 700.209 806.364C700.209 806.364 707.364 799.654 702.439 795.947C697.513 792.239 694.31 789.693 694.31 789.693L672.527 759.69C672.1 759.101 671.27 758.981 670.694 759.425L666.168 762.909C666.168 762.909 659.939 762.367 656.872 760.596C655.004 759.517 652.724 756.694 651.225 754.65Z" fill="#E4E4E4"/>
<path fill-rule="evenodd" clip-rule="evenodd" d="M723.3 788.361C721.915 787.753 720.269 788.369 719.753 789.791C718.813 792.383 717.55 796.273 717.55 798.465C717.55 801.958 718.714 808.661 718.714 808.661C722.769 808.661 791.585 808.661 791.585 808.661C791.585 808.661 794.426 799.273 788.306 798.524C782.186 797.776 778.138 797.173 778.138 797.173L744.269 782.077C743.603 781.78 742.825 782.091 742.548 782.764L740.371 788.045C740.371 788.045 734.705 790.687 731.164 790.687C729.008 790.687 725.62 789.382 723.3 788.361Z" fill="#E4E4E4"/>
<path fill-rule="evenodd" clip-rule="evenodd" d="M768.933 641.305C768.933 675.62 752.633 755.664 752.622 763.22L717.55 763.248C717.55 763.248 725.251 656.113 723.012 654.959C720.771 653.805 631.215 663.898 604.354 663.898C565.623 663.898 549.6 639.48 548.3 594.246H625.026C640.649 595.917 722.136 612.349 752.398 617.997C765.354 620.415 768.933 631.852 768.933 641.305Z" fill="#002743"/>
<path fill-rule="evenodd" clip-rule="evenodd" d="M731.094 536.024L680.083 542.981L689.235 565.829L730.626 549.423C748.467 551.183 757.094 550.76 756.508 548.153C756.013 545.955 754.116 545.291 752.369 544.68C751.009 544.203 749.739 543.759 749.293 542.646C748.274 540.103 754.073 534.834 759.789 530.07C765.505 525.306 761.669 524.429 759.257 524.5C750.686 526.508 741.298 530.35 731.094 536.024ZM482.923 661.293C486.709 653.614 519.838 554.785 519.838 554.785L548.129 554.891C548.129 554.891 501.596 659.582 499.603 664.52C497.014 670.934 501.412 680.253 504.394 686.573C504.855 687.551 505.282 688.457 505.645 689.269C501.507 691.12 499.519 688.883 497.424 686.524C495.057 683.86 492.553 681.041 486.657 683.782C484.379 684.843 482.224 686.094 480.118 687.319C472.844 691.545 466.162 695.429 457.072 689.821C455.631 688.932 454.052 685.585 457.867 682.97C467.373 676.453 481.072 665.048 482.923 661.293Z" fill="#DCAE92"/>
<path fill-rule="evenodd" clip-rule="evenodd" d="M597.33 465.08L619.481 466.555C624.937 515.898 654.651 547.065 721.182 536.514L730.021 600.057C667.839 608.091 613.304 583.202 602.127 515.814C599.234 498.37 596.95 480.215 597.33 465.08Z" fill="#007479"/>
<path fill-rule="evenodd" clip-rule="evenodd" d="M486.804 648.495C502.183 566.687 534.644 503.396 584.186 458.622H586.312H586.384L586.402 458.642L619.964 466.327C619.964 506.631 628.933 536.747 637.556 565.7C641.279 578.204 644.938 590.491 647.783 603.287H557.142C555.865 617.949 555.081 633.019 554.673 648.495H486.804Z" fill="#00ACB0"/>
<path fill-rule="evenodd" clip-rule="evenodd" d="M557.142 603.287C559.742 573.438 564.384 545.279 572.057 518.81C570.375 547.116 569.909 582.231 575.565 603.287H557.142Z" fill="black" fill-opacity="0.1"/>
<path fill-rule="evenodd" clip-rule="evenodd" d="M391.324 293.289C375.983 293.289 363.547 305.723 363.547 321.06V348.185C363.547 362.478 374.347 374.249 388.235 375.786C388.238 375.852 388.242 375.918 388.246 375.985H425.713C431.635 370.2 425.832 333.321 421.378 316.914C419.376 303.543 407.84 293.289 393.908 293.289H391.324Z" fill="#4A312C"/>
<path fill-rule="evenodd" clip-rule="evenodd" d="M393.179 355.605C401.545 360.646 409.765 363.082 413.624 362.088C423.3 359.594 424.19 324.205 416.703 310.254C409.216 296.303 370.728 290.222 368.788 317.864C368.114 327.458 372.144 336.019 378.097 343.005L367.422 392.747H398.43L393.179 355.605Z" fill="#DCAE92"/>
<path fill-rule="evenodd" clip-rule="evenodd" d="M364.685 318.025C365.585 317.135 366.456 316.274 367.321 315.503L367.279 314.499C367.279 314.499 377.011 294.581 391.972 294.581C406.92 294.581 411.647 301.528 415.666 307.434L415.676 307.45C413.574 314.66 407.24 317.577 400.076 320.876C396.992 322.297 393.754 323.788 390.634 325.722C389.412 324.73 387.854 324.135 386.156 324.135C382.232 324.135 379.05 327.315 379.05 331.239C379.05 335.162 382.232 338.343 386.156 338.343C386.264 338.343 386.372 338.34 386.479 338.336C387.908 353.678 387.335 371.199 383.078 375.358H345.61C344.535 356.675 349.369 351.346 354.309 345.9C358.957 340.775 363.698 335.548 363.698 318.997C364.032 318.671 364.36 318.346 364.685 318.025Z" fill="#4A312C"/>
<path fill-rule="evenodd" clip-rule="evenodd" d="M357.087 499.955L405.705 658.86L429.257 793.998H447.723L422.837 499.955H357.087Z" fill="#DCAE92"/>
<path fill-rule="evenodd" clip-rule="evenodd" d="M357.087 499.955L405.705 658.86L429.257 793.998H447.723L422.837 499.955H357.087Z" fill="black" fill-opacity="0.1"/>
<path fill-rule="evenodd" clip-rule="evenodd" d="M339.694 499.955C342.996 587.202 339.11 632.206 338.371 640.133C337.632 648.06 327.51 699.458 303.552 796.659L323.229 789.903C361.094 700.755 373.997 654.423 378.34 642.716C382.683 631.01 394.217 583.423 412.943 499.955H339.694Z" fill="#DCAE92"/>
<path fill-rule="evenodd" clip-rule="evenodd" d="M307.28 788.361C305.895 787.753 304.25 788.369 303.734 789.791C302.794 792.383 301.531 796.273 301.531 798.465C301.531 801.958 302.696 808.661 302.696 808.661C306.75 808.661 375.566 808.661 375.566 808.661C375.566 808.661 378.407 799.273 372.287 798.524C366.167 797.776 362.119 797.173 362.119 797.173L328.249 782.077C327.584 781.78 326.806 782.091 326.529 782.764L324.352 788.045C324.352 788.045 318.686 790.687 315.145 790.687C312.988 790.687 309.601 789.382 307.28 788.361Z" fill="#E4E4E4"/>
<path fill-rule="evenodd" clip-rule="evenodd" d="M428.727 788.361C427.342 787.753 425.696 788.369 425.181 789.791C424.24 792.383 422.978 796.273 422.978 798.465C422.978 801.958 424.142 808.661 424.142 808.661C428.196 808.661 497.012 808.661 497.012 808.661C497.012 808.661 499.853 799.273 493.733 798.524C487.613 797.776 483.565 797.173 483.565 797.173L449.696 782.077C449.031 781.78 448.253 782.091 447.975 782.764L445.798 788.045C445.798 788.045 440.133 790.687 436.591 790.687C434.435 790.687 431.048 789.382 428.727 788.361Z" fill="#E4E4E4"/>
<path fill-rule="evenodd" clip-rule="evenodd" d="M350.627 499.955L371.298 580.915H434.438L425.024 499.955H350.627Z" fill="#00112C"/>
<path fill-rule="evenodd" clip-rule="evenodd" d="M338.999 499.955C328.796 530.529 335.123 580.915 335.123 580.915H399.554L417.272 499.955H338.999Z" fill="#002743"/>
<path fill-rule="evenodd" clip-rule="evenodd" d="M522.764 444.031L475.949 464.585L490.897 483.73L525.958 456.856C543.471 453.64 551.594 450.877 550.324 448.568C549.254 446.62 547.263 446.511 545.43 446.409C544.001 446.331 542.667 446.257 541.939 445.324C540.276 443.194 544.38 436.613 548.543 430.535C552.706 424.456 548.804 424.676 546.521 425.403C538.883 429.652 530.965 435.861 522.764 444.031ZM313.159 475.498L286.684 470.246C268.729 517.56 258.024 543.486 254.571 548.028C252.038 551.357 236.419 559.935 225.847 564.517C221.603 566.355 222.514 569.94 223.759 571.087C231.609 578.322 238.908 575.787 246.852 573.026C249.152 572.227 251.506 571.409 253.944 570.803C260.253 569.238 262.172 572.481 263.987 575.546C265.593 578.26 267.117 580.833 271.53 579.806C271.33 578.941 271.083 577.971 270.817 576.923C269.096 570.155 266.559 560.172 270.323 554.372C272.255 551.396 286.534 525.104 313.159 475.498Z" fill="#DCAE92"/>
<path fill-rule="evenodd" clip-rule="evenodd" d="M385.116 371.218L396.288 369.302C420.621 392.901 430.551 449.596 446.768 457.101C462.1 464.196 483.835 457.33 509.67 448.059L517.581 465.732C494.108 491.12 444.1 512.57 423.831 500.325C391.422 480.747 383.942 410.822 385.116 371.218Z" fill="#BB1146"/>
<path fill-rule="evenodd" clip-rule="evenodd" d="M336.415 511.58C336.415 511.58 403.608 511.58 435.266 511.58C439.784 511.58 438.933 505.059 438.279 501.768C430.744 463.793 401.326 422.858 401.326 368.801L372.813 364.331C349.228 402.252 341.072 448.94 336.415 511.58Z" fill="#C7D1D9"/>
<path fill-rule="evenodd" clip-rule="evenodd" d="M371.298 364.331H370.973C307.018 403.732 268.367 464.81 255.02 547.564L275.74 551.621C289.465 535.634 306.404 509.472 326.555 473.131C320.373 495.022 315.859 517.473 314.451 538.704H403.433C420.659 495.182 382.262 364.331 382.262 364.331H376.119H371.298Z" fill="#E62460"/>
</svg>
