<svg width="497" height="739" viewBox="0 0 497 739" fill="none" xmlns="http://www.w3.org/2000/svg">
<g clip-path="url(#clip0_16_133)">
<g opacity="0.2">
<path d="M267.109 477.459C151.195 477.459 57.2287 383.451 57.2287 267.487C57.2287 151.522 151.195 57.5144 267.109 57.5144C383.023 57.5144 476.99 151.522 476.99 267.487C476.99 383.451 383.023 477.459 267.109 477.459Z" fill="#FFA434"/>
<path d="M139.355 738.557C118.692 738.557 101.941 721.799 101.941 701.127C101.941 680.454 118.692 663.697 139.355 663.697C160.018 663.697 176.768 680.454 176.768 701.127C176.768 721.799 160.018 738.557 139.355 738.557Z" fill="#002743"/>
<path fill-rule="evenodd" clip-rule="evenodd" d="M301.772 -0.0268555L257.044 44.7199L301.772 89.4667L346.499 44.7199L301.772 -0.0268555Z" fill="#002743"/>
<path fill-rule="evenodd" clip-rule="evenodd" d="M425.889 629.918L403.988 651.829L425.889 673.739L447.789 651.829L425.889 629.918Z" fill="#FFA434"/>
<path fill-rule="evenodd" clip-rule="evenodd" d="M109.241 57.5144L98.2911 68.4695L109.241 79.4246L120.191 68.4695L109.241 57.5144Z" fill="#2026A2"/>
</g>
<path fill-rule="evenodd" clip-rule="evenodd" d="M464.094 107.39L301.671 101.715C283.313 101.074 267.91 115.443 267.269 133.81L253.159 538.082C252.517 556.448 266.88 571.857 285.239 572.499L447.661 578.172C466.019 578.813 481.422 564.444 482.063 546.078L496.174 141.807C496.815 123.44 482.452 108.031 464.094 107.39Z" fill="#F2F2F2"/>
<path fill-rule="evenodd" clip-rule="evenodd" d="M438.49 120.244C438.252 127.061 432.631 132.42 425.857 132.376L425.493 132.369L338.47 129.329C331.656 129.091 326.298 123.468 326.343 116.691L326.35 116.327L326.479 112.631L300.934 111.738C288.695 111.31 278.427 120.89 278 133.134L263.837 538.883C263.409 551.127 272.985 561.4 285.224 561.827L449.082 567.552C461.321 567.979 471.589 558.399 472.016 546.155L486.179 140.407C486.607 128.163 477.031 117.89 464.792 117.463L438.619 116.548L438.49 120.244Z" fill="#240E6A"/>
<path fill-rule="evenodd" clip-rule="evenodd" d="M115.429 358.404C122.311 358.894 128.267 357.79 130.376 355.926C135.667 351.251 124.878 328.681 115.692 322.298C106.506 315.915 80.3309 324.436 87.9742 342.465C90.6269 348.722 95.9086 352.82 101.896 355.309L111.128 390.057L130.645 380.108L115.429 358.404Z" fill="#915B3C"/>
<path fill-rule="evenodd" clip-rule="evenodd" d="M118.134 305.711C117.007 304.496 115.3 303.833 113.651 304.219C113.251 304.313 112.867 304.465 112.508 304.666C112.38 304.738 112.363 304.794 112.255 304.734C112.174 304.689 112.089 304.523 112.029 304.453C111.845 304.234 111.647 304.026 111.435 303.833C110.714 303.174 109.831 302.715 108.901 302.424C107.16 301.879 105.191 301.894 103.489 302.583C102.557 302.96 101.745 303.557 101.049 304.278C100.689 304.651 100.36 305.054 100.053 305.471C99.9609 305.596 99.7132 306.107 99.5786 306.151C99.4298 306.199 98.9789 305.998 98.8233 305.969C96.8991 305.613 94.9782 306.066 93.2614 306.957C91.3237 307.963 89.5002 309.015 88.4821 311.028C88.2665 311.455 88.0795 311.896 87.9154 312.344C87.8291 312.58 87.7508 312.819 87.6832 313.061C87.6424 313.207 87.6051 313.354 87.5726 313.502C87.5174 313.753 87.5703 313.8 87.3039 313.78C86.2816 313.704 85.264 313.943 84.4098 314.519C83.9026 314.862 83.4589 315.293 83.0679 315.761C82.9349 315.921 82.6888 316.412 82.5088 316.507C82.3303 316.602 81.8047 316.531 81.5846 316.557C80.3952 316.698 79.2696 317.157 78.3043 317.864C77.3086 318.594 76.4629 319.57 75.848 320.638C75.5523 321.151 75.3288 321.667 75.2369 322.253C75.1972 322.506 75.1758 322.764 75.1113 323.012C75.0736 323.158 74.9502 323.351 74.9672 323.502C74.957 323.411 73.5027 323.562 73.3727 323.591C72.6802 323.743 72.0744 324.092 71.5763 324.594C70.6396 325.539 70.0949 326.863 69.7332 328.12C69.5474 328.765 69.4362 329.431 69.3951 330.101C69.3753 330.422 69.3716 330.744 69.382 331.065C69.3869 331.22 69.4278 331.397 69.4078 331.55C69.3819 331.747 69.316 331.784 69.1671 331.94C68.4104 332.732 67.849 333.707 67.5856 334.771C67.3192 335.847 67.3679 336.981 67.6851 338.039C67.7038 338.101 67.818 338.341 67.8003 338.389C67.7762 338.454 67.5815 338.53 67.5156 338.574C67.2875 338.726 67.0682 338.891 66.8591 339.069C66.4739 339.396 66.1251 339.766 65.8233 340.171C64.647 341.751 64.2654 343.784 64.5511 345.706C64.851 347.724 65.8665 349.692 67.4178 351.031C67.6684 351.247 67.9361 351.445 68.2196 351.616C68.3937 351.721 68.4247 351.706 68.4448 351.899C68.4671 352.114 68.4295 352.353 68.4367 352.571C68.4602 353.281 68.5821 353.984 68.7797 354.665C69.1038 355.782 69.5523 356.901 70.2665 357.829C70.5981 358.26 70.9903 358.647 71.4431 358.95C71.6739 359.105 71.9195 359.238 72.1756 359.347C72.3086 359.403 72.4444 359.452 72.5822 359.496C72.6611 359.52 72.753 359.53 72.827 359.565C73.0075 359.65 72.9717 359.523 73.0204 359.757C73.0883 360.085 73.0546 360.461 73.088 360.796C73.1225 361.143 73.1698 361.487 73.2273 361.83C73.3436 362.525 73.4946 363.215 73.7105 363.886C74.1253 365.174 74.8046 366.425 75.9237 367.23C76.4023 367.575 76.9561 367.808 77.5372 367.914C77.8216 367.965 78.112 367.987 78.4011 367.978C78.5497 367.974 78.7148 367.921 78.8283 368.008C78.9505 368.103 78.9891 368.395 79.0401 368.544C79.4835 369.842 80.0439 371.158 81.0077 372.16C81.8954 373.084 83.1162 373.677 84.3886 373.833C86.8569 374.135 89.298 372.802 90.7235 370.826C91.0951 370.311 91.4024 369.75 91.6296 369.157C93.4324 370.052 95.6099 368.885 96.964 367.678C98.6511 366.174 99.5239 364.023 99.518 361.784C101.512 362.655 103.848 360.852 103.874 358.791C103.88 358.286 103.781 357.784 103.616 357.31C103.529 357.06 103.388 356.835 103.295 356.591C103.175 356.28 103.226 355.893 103.194 355.55C103.132 354.882 102.976 354.238 102.677 353.636C102.521 353.322 102.326 353.037 102.138 352.742C101.969 352.476 101.914 352.176 101.818 351.878C101.36 352.215 100.683 352.39 100.139 352.485C99.6048 352.579 98.9817 352.425 98.4817 352.249C97.3206 351.841 96.3283 351.036 95.4847 350.161C93.6329 348.242 92.5283 345.369 94.1791 342.956C94.9481 341.831 98.1398 340.207 99.5545 339.847C101.042 339.469 104.053 341.642 104.268 341.881C104.402 342.029 104.486 342.253 104.702 342.287C105.175 342.361 105.524 341.635 105.669 341.29C105.92 340.695 105.983 340.042 106 339.403C106.037 338.012 105.919 336.6 105.649 335.235C105.441 334.183 105.124 333.15 105.007 332.08C104.891 331.016 105.019 329.947 105.59 329.019C106.212 328.01 107.098 327.194 107.912 326.344C108.718 325.502 109.47 324.592 109.86 323.478C109.946 323.233 110.022 322.98 110.061 322.724C110.092 322.521 110.052 322.183 110.166 322.007C110.343 321.732 110.904 321.926 111.192 321.953C112.613 322.088 113.993 322.582 115.245 323.253C116.49 323.92 117.586 324.614 118.653 325.524C119.444 326.199 120.224 327.182 121.206 327.565C121.645 327.736 123.815 326.868 124.348 326.252C124.88 325.636 125.271 324.542 125.27 323.983C125.269 323.409 125.07 322.881 124.717 322.432C124.509 322.169 124.252 321.955 124.04 321.7C123.862 321.486 123.696 321.282 123.465 321.121C123.029 320.814 122.493 320.707 121.969 320.815C122.223 320.13 122.35 319.4 122.325 318.669C122.297 317.911 122.159 317.042 121.885 316.334C121.662 315.759 121.288 315.236 120.75 314.919C120.185 314.586 119.465 314.548 118.827 314.486C119.269 313.537 119.543 312.516 119.665 311.479C119.904 309.46 119.559 307.245 118.134 305.711Z" fill="black"/>
<path fill-rule="evenodd" clip-rule="evenodd" d="M128.566 457.429L173.354 570.839L203.394 666.717H215.256L167.507 457.429H128.566Z" fill="#915B3C"/>
<path fill-rule="evenodd" clip-rule="evenodd" d="M119.547 457.429C119.07 497.282 112.115 550.937 111.003 553.422C109.892 555.906 34.2796 616.605 34.2796 616.605L42.4496 625.351C42.4496 625.351 131.666 573.31 135.794 566.369C139.922 559.428 153.363 495.555 164.154 457.429H119.547Z" fill="#915B3C"/>
<path fill-rule="evenodd" clip-rule="evenodd" d="M35.5938 614.967C35.2949 613.941 34.2141 613.33 33.2105 613.697C31.3799 614.366 28.7025 615.449 27.5163 616.445C25.6255 618.033 22.5266 621.708 22.5266 621.708C24.3671 623.903 55.6097 661.152 55.6097 661.152C55.6097 661.152 61.98 658.424 59.6067 654.771C57.2334 651.119 55.7222 648.654 55.7222 648.654L48.515 623.463C48.3734 622.968 47.8518 622.688 47.3618 622.844L43.516 624.064C43.516 624.064 39.5137 622.198 37.9056 620.28C36.9267 619.113 36.0948 616.687 35.5938 614.967Z" fill="#E4E4E4"/>
<path fill-rule="evenodd" clip-rule="evenodd" d="M201.066 661.271C200.088 660.841 198.925 661.276 198.561 662.281C197.897 664.113 197.005 666.862 197.005 668.411C197.005 670.881 197.827 675.618 197.827 675.618C200.691 675.618 249.296 675.618 249.296 675.618C249.296 675.618 251.303 668.983 246.98 668.453C242.657 667.925 239.798 667.499 239.798 667.499L215.876 656.829C215.406 656.619 214.857 656.839 214.661 657.315L213.123 661.047C213.123 661.047 209.122 662.915 206.621 662.915C205.098 662.915 202.705 661.992 201.066 661.271Z" fill="#E4E4E4"/>
<path fill-rule="evenodd" clip-rule="evenodd" d="M158.679 656.842L215.077 650.718L169.629 457.429H122.766L158.679 656.842Z" fill="#00112C"/>
<path fill-rule="evenodd" clip-rule="evenodd" d="M45.9456 602.493L82.9394 646.3C82.9394 646.3 141.387 582.438 151.09 562.959C160.792 543.481 168.534 457.429 168.534 457.429H111.664C111.664 457.429 107.435 533.134 105.963 536.657C104.491 540.18 45.9456 602.493 45.9456 602.493Z" fill="#002743"/>
<path fill-rule="evenodd" clip-rule="evenodd" d="M221.358 399.129L192.784 421.228L206.3 431.799L225.738 407.376C237.191 402.176 242.286 398.893 241.021 397.527C239.956 396.375 238.572 396.64 237.298 396.884C236.306 397.074 235.379 397.252 234.721 396.737C233.217 395.561 234.906 390.346 236.721 385.467C238.535 380.587 235.899 381.405 234.458 382.294C229.949 386.514 225.583 392.125 221.358 399.129ZM83.0784 456.549L64.0364 457.476C59.8128 492.987 56.9052 512.594 55.3138 516.298C54.1469 519.015 44.9073 527.567 38.4443 532.516C35.8499 534.502 37.0869 536.805 38.1358 537.379C44.7521 540.996 49.321 538.01 54.2944 534.759C55.7341 533.817 57.2079 532.854 58.7749 532.022C62.8313 529.87 64.701 531.765 66.4681 533.556C68.0326 535.142 69.5164 536.646 72.366 535.187C72.0806 534.628 71.7458 534.005 71.3845 533.332C69.049 528.986 65.6046 522.575 67.194 517.955C68.0098 515.584 73.3045 495.115 83.0784 456.549Z" fill="#915B3C"/>
<path fill-rule="evenodd" clip-rule="evenodd" d="M114.57 372.736L121.9 369.512C142.609 381.532 159.101 418.71 171.498 421.083C183.218 423.326 196.943 414.901 213.066 404.125L221.507 414.891C209.756 436.314 179.145 459.575 163.16 454.645C137.603 446.763 120.53 400.094 114.57 372.736Z" fill="#007479"/>
<path fill-rule="evenodd" clip-rule="evenodd" d="M105.173 477.31C105.173 477.31 151.229 465.818 172.928 460.403C176.024 459.63 174.327 455.305 173.317 453.16C161.664 428.408 134.507 405.368 125.272 368.3L104.965 370.111C95.2777 400.148 97.6637 433.559 105.173 477.31Z" fill="#C7D1D9"/>
<path fill-rule="evenodd" clip-rule="evenodd" d="M103.934 370.367L103.711 370.423C66.6065 408.379 50.5489 456.872 55.5381 515.902L70.433 515.14C77.1094 501.83 84.2498 480.993 91.8537 452.627C91.3558 468.695 92.0974 484.863 94.7595 499.662L155.749 484.444C160.12 451.653 111.449 368.492 111.449 368.492L107.238 369.543L103.934 370.367Z" fill="#00ACB0"/>
<mask id="mask0_16_133" style="mask-type:luminance" maskUnits="userSpaceOnUse" x="25" y="0" width="462" height="739">
<path fill-rule="evenodd" clip-rule="evenodd" d="M285.224 561.827L449.082 567.552C461.321 567.979 471.589 558.399 472.016 546.155L486.179 140.407C486.607 128.163 477.031 117.89 464.792 117.462L425.889 0H25.6513V738.557H201.474C201.474 738.557 282.872 561.744 285.224 561.827Z" fill="white"/>
</mask>
<g mask="url(#mask0_16_133)">
<path fill-rule="evenodd" clip-rule="evenodd" d="M282.929 192.724C279.885 204.127 274.783 213.145 270.596 215.521C260.096 221.479 229.656 191.492 224.467 173.09C219.278 154.687 247.629 117.091 272.488 139.469C281.115 147.235 284.791 158.054 285.474 169.12L336.45 203.357L309.502 229.391L282.929 192.724Z" fill="#915B3C"/>
<path fill-rule="evenodd" clip-rule="evenodd" d="M210.287 164.82C216.07 170.812 225.496 171.164 231.719 165.762C236.622 163.276 242.394 159.284 248.129 154.213C250.063 159.293 253.267 164.388 257.647 168.926C257.918 169.206 258.191 169.482 258.466 169.754C257.785 166.809 258.452 163.813 260.534 161.801C263.945 158.506 269.861 159.099 273.748 163.126C277.635 167.154 278.022 173.089 274.611 176.384C273.514 177.443 272.159 178.101 270.695 178.371C280.465 182.932 290.536 182.677 296.667 176.754C302.53 171.09 303.341 161.641 299.713 152.143C307.305 150.184 315.514 145.539 322.731 138.566C337.924 123.888 342.968 104.456 333.998 95.1629C325.028 85.8698 305.44 90.235 290.247 104.913C283.03 111.886 278.103 119.931 275.881 127.453C272.039 125.829 268.179 124.952 264.558 124.874C259.834 123.103 247.939 129.208 236.35 139.648C235.083 140.789 233.868 141.94 232.709 143.09C226.725 136.929 216.876 136.776 210.687 142.755C204.486 148.746 204.307 158.625 210.287 164.82Z" fill="black"/>
<path fill-rule="evenodd" clip-rule="evenodd" d="M521.121 445.237C521.121 445.237 469.461 472.296 429.611 480.773C389.762 489.249 350.553 472.841 350.553 472.841C350.553 472.841 400.95 445.626 435.73 438.228C470.51 430.83 521.121 445.237 521.121 445.237Z" fill="#00112C"/>
<path fill-rule="evenodd" clip-rule="evenodd" d="M401.054 502.298C401.294 501.693 401.471 501.05 401.575 500.375C403.716 486.374 452.438 329.903 454.821 302.684L366.543 321.463C364.73 342.159 363.898 469.789 365.303 494.919C361.583 535.822 363.542 665.31 362.25 674.584C360.892 684.341 381.363 689.848 383.919 677.666C387.985 658.281 396.229 605.285 398.179 573.581C400.006 543.86 400.985 517.261 401.054 502.298Z" fill="#915B3C"/>
<path fill-rule="evenodd" clip-rule="evenodd" d="M401.054 502.298C401.294 501.693 401.471 501.05 401.575 500.375C403.716 486.374 452.438 329.903 454.821 302.684L366.543 321.463C364.73 342.159 363.898 469.789 365.303 494.919C361.583 535.822 363.542 665.31 362.25 674.584C360.892 684.341 381.363 689.848 383.919 677.666C387.985 658.281 396.229 605.285 398.179 573.581C400.006 543.86 400.985 517.261 401.054 502.298Z" fill="black" fill-opacity="0.1"/>
<path fill-rule="evenodd" clip-rule="evenodd" d="M476.877 504.008C514.648 505.45 649.241 493.953 658.784 494.61C668.601 495.286 672.661 474.463 660.342 472.761C640.741 470.051 587.352 465.514 555.622 465.777C530.101 465.989 506.915 466.664 491.423 467.466C483.742 425.06 468.07 322.705 459.628 301.674L381.525 318.29C389.622 338.457 452.911 484.711 461.89 498.789C464.869 503.861 470.808 505.121 476.877 504.008Z" fill="#915B3C"/>
<path fill-rule="evenodd" clip-rule="evenodd" d="M384.652 674.224C386.136 673.157 388.235 673.472 389.201 675.024C390.964 677.854 393.432 682.137 393.983 684.729C394.861 688.862 395.169 697.082 395.169 697.082C390.379 698.1 309.077 715.394 309.077 715.394C309.077 715.394 303.362 705.005 310.404 702.581C317.447 700.158 322.078 698.427 322.078 698.427L358.3 672.061C359.011 671.543 360.009 671.715 360.506 672.442L364.404 678.14C364.404 678.14 371.762 679.842 375.945 678.952C378.493 678.41 382.167 676.014 384.652 674.224Z" fill="#E4E4E4"/>
<path fill-rule="evenodd" clip-rule="evenodd" d="M459.381 301.713C459.381 301.713 404.616 297.911 361.687 322.496C361.365 373.569 339.515 398.461 350.839 474.249C408.221 489.022 462.941 431.16 521.714 444.967C529.501 406.509 490.121 326.258 459.381 301.713Z" fill="#002743"/>
<path fill-rule="evenodd" clip-rule="evenodd" d="M279.303 431.399L292.929 371.165L319.064 384.452L295.244 432.219C295.451 453.717 294.04 463.98 291.01 463.011C288.454 462.194 287.867 459.859 287.326 457.709C286.905 456.034 286.511 454.472 285.238 453.825C282.33 452.346 275.468 458.732 269.216 465.071C262.962 471.41 262.327 466.736 262.665 463.862C265.95 453.827 271.496 443.007 279.303 431.399ZM531.972 341.884C523.089 336.603 460.84 269.317 460.84 269.317L433.553 287.199C433.553 287.199 511.927 352.444 517.191 356.132C524.03 360.921 525.698 373.252 526.83 381.614C527.005 382.907 527.167 384.105 527.334 385.167C532.743 384.317 533.287 380.743 533.86 376.976C534.507 372.72 535.193 368.217 542.967 367.111C545.972 366.685 548.979 366.534 551.917 366.387C562.065 365.877 571.388 365.411 576.913 353.748C577.789 351.9 577.19 347.472 571.605 347.336C557.69 346.996 536.315 344.467 531.972 341.884Z" fill="#915B3C"/>
<path fill-rule="evenodd" clip-rule="evenodd" d="M308.656 205.139L296.077 210.554C308.156 271.855 302.813 338.157 280.049 409.46L345.658 430.154C357.481 342.007 349.512 264.166 308.656 205.139Z" fill="#007479"/>
<path fill-rule="evenodd" clip-rule="evenodd" d="M450.246 315.195L349.439 380.691C349.439 380.691 329.241 272.841 290.636 213.367L318.107 189.084C366.927 211.952 404.36 254.839 450.246 315.195Z" fill="#C7D1D9"/>
<path fill-rule="evenodd" clip-rule="evenodd" d="M524.079 328.586C432.406 211.502 318.772 188.655 318.772 188.655L318.762 188.692C318.753 188.687 318.744 188.683 318.735 188.679L316.75 189.968C313.268 192.405 306.184 197.461 306.184 197.461L312.452 223.211C336.186 262.331 399.199 386.678 399.199 386.678L465.184 343.807C468.531 349.21 471.791 354.777 474.945 360.51L524.079 328.586Z" fill="#00ACB0"/>
<path fill-rule="evenodd" clip-rule="evenodd" d="M465.511 344.332C450.969 320.776 434.759 300.319 418.517 282.829C431.911 307.404 446.433 338.009 447.127 356.277L465.511 344.332Z" fill="black" fill-opacity="0.1"/>
<path fill-rule="evenodd" clip-rule="evenodd" d="M424.593 313.274L382.189 319.312L392.011 334.443L424.593 313.274Z" fill="white" fill-opacity="0.2"/>
</g>
</g>
<defs>
<clipPath id="clip0_16_133">
<rect width="497" height="739" fill="white" transform="matrix(-1 0 0 1 497 0)"/>
</clipPath>
</defs>
</svg>
