<svg width="387" height="529" viewBox="0 0 387 529" fill="none" xmlns="http://www.w3.org/2000/svg">
<path fill-rule="evenodd" clip-rule="evenodd" d="M191.483 89.2356C183.373 94.1245 175.403 96.4865 171.662 95.5223C162.282 93.1043 161.419 58.7876 168.678 45.2588C175.936 31.7301 213.249 25.8335 215.129 52.6382C215.782 61.9413 211.876 70.2436 206.104 77.0182L216.453 125.253H186.392L191.483 89.2356Z" fill="#DCAE92"/>
<path fill-rule="evenodd" clip-rule="evenodd" d="M180.551 30.5241C184.659 29.2716 190.622 28.8467 193.13 29.1342C191.703 25.7154 191.137 21.9066 191.599 18.1981C192.047 14.5946 193.657 11.5263 195.147 8.31103C195.833 6.829 196.611 5.35506 197.771 4.2215C198.952 3.06662 200.448 2.30432 202.016 1.94063C203.621 1.56836 205.299 1.59936 206.907 1.9372C207.618 2.08663 208.256 2.41175 208.953 2.59247C209.667 2.77765 210.014 2.33067 210.532 1.88146C211.782 0.799077 213.613 0.264761 215.193 0.0735249C216.966 -0.140933 218.806 0.126532 220.497 0.709421C222.143 1.27687 223.724 2.1983 224.914 3.54066C225.444 4.13819 225.925 4.81832 226.238 5.56922C226.366 5.87737 226.387 6.05993 226.695 6.1728C226.979 6.2773 227.312 6.28033 227.605 6.3798C230.443 7.34101 232.87 9.53388 234.191 12.3493C234.962 13.9919 235.327 16.8838 235.227 20.1253C235.127 23.3666 232.2 31.8244 229.463 34.9094C227.019 37.6629 223.428 39.4801 219.962 40.2754C222.262 42.9051 223.794 46.1913 224.926 49.5334C226.156 53.1636 226.918 56.9357 227.199 60.7791C227.466 64.4307 227.49 68.2923 226.635 71.866C225.834 75.2079 224.121 77.9495 221.262 79.6888C219.952 80.4855 218.543 81.0841 217.126 81.6311C215.729 82.1702 214.329 82.6943 212.866 82.9968C210.097 83.5691 206.906 83.4708 204.773 81.2668C204.005 80.4724 203.159 79.474 202.598 78.5034C202.397 78.1543 202.275 77.9261 202.52 77.5849C202.814 77.1763 203.288 76.8632 203.666 76.5435C205.815 74.721 207.146 72.2878 207.482 69.3962C207.822 66.4624 207.034 62.6757 204.182 61.3952C200.661 59.8148 196.783 61.6289 193.654 63.32C192.324 58.6259 189.593 54.3992 185.311 52.246C180.574 49.8638 175.139 49.585 170.271 47.5411C169.003 47.0085 167.711 46.4039 166.777 45.3188C166.386 44.8652 165.929 44.2769 165.773 43.6769C165.568 42.889 166.076 42.2284 166.469 41.6141C168.55 38.3569 176.444 31.7767 180.551 30.5241Z" fill="#E8E1E1"/>
<path fill-rule="evenodd" clip-rule="evenodd" d="M223.968 229.213L130.898 384.811L61.1207 516.355H46.0916L163.003 229.213H223.968Z" fill="#CCCCCC"/>
<path fill-rule="evenodd" clip-rule="evenodd" d="M66.8384 508.883C68.1811 508.293 69.7768 508.89 70.2765 510.269C71.1884 512.783 72.4121 516.554 72.4121 518.68C72.4121 522.068 71.2836 528.567 71.2836 528.567C67.3531 528.567 0.638435 528.567 0.638435 528.567C0.638435 528.567 -2.11588 519.464 3.81734 518.737C9.75058 518.012 13.6748 517.427 13.6748 517.427L46.5098 502.789C47.1549 502.501 47.9089 502.803 48.1782 503.455L50.2887 508.576C50.2887 508.576 55.781 511.138 59.2142 511.138C61.3047 511.138 64.5888 509.872 66.8384 508.883Z" fill="#E4E4E4"/>
<path fill-rule="evenodd" clip-rule="evenodd" d="M80.4996 495.291L51.5161 486.524C51.5161 486.524 70.5633 429.581 98.2079 361.197C125.851 292.814 157.584 229.213 157.584 229.213H239.444C239.444 229.213 204.164 309.665 164.641 375.414C125.117 441.165 80.4996 495.291 80.4996 495.291Z" fill="#00112C"/>
<path fill-rule="evenodd" clip-rule="evenodd" d="M230.084 229.213C238.868 283.891 255.811 353.749 257.409 355.905C258.475 357.342 296.849 370.2 372.531 394.48L369.284 407.733C279.034 394.712 231.481 384.609 226.622 377.426C219.335 366.65 182.949 281.522 168.857 229.213H230.084Z" fill="#DCAE92"/>
<path fill-rule="evenodd" clip-rule="evenodd" d="M345.928 383.023L340.209 404.369C272.708 410.29 231.348 406.011 216.13 391.536C200.913 377.06 183.569 322.952 164.099 229.213H242.157C254.494 305.973 261.39 345.964 262.847 349.186C264.304 352.408 291.998 363.688 345.928 383.023Z" fill="#002743"/>
<path fill-rule="evenodd" clip-rule="evenodd" d="M366.843 392.134C366.494 390.71 367.36 389.242 368.805 388.989C371.44 388.528 375.365 387.978 377.458 388.347C380.795 388.935 387 391.176 387 391.176C386.318 395.046 374.733 460.748 374.733 460.748C374.733 460.748 365.289 461.879 365.604 455.909C365.92 449.941 366.025 445.974 366.025 445.974L357.311 411.096C357.14 410.413 357.568 409.721 358.258 409.57L363.666 408.38C363.666 408.38 367.143 403.416 367.74 400.034C368.103 397.976 367.427 394.522 366.843 392.134Z" fill="#E4E4E4"/>
<path fill-rule="evenodd" clip-rule="evenodd" d="M80.7138 243.94L116.195 209.326L127.979 229.716L91.0835 251.47C81.8323 266.043 76.3988 272.34 74.7831 270.361C73.4203 268.691 74.0453 266.861 74.6202 265.177C75.0686 263.864 75.4857 262.639 74.9121 261.646C73.6007 259.376 66.1932 260.675 59.2166 262.209C52.2388 263.742 53.8533 260.316 55.3363 258.527C61.9309 253.205 70.3892 248.343 80.7138 243.94ZM289.854 294.229C286.183 286.783 273.683 214.207 273.683 214.207L247.509 214.31C247.509 214.31 271.751 292.569 273.683 297.358C276.193 303.578 271.93 312.615 269.039 318.743C268.591 319.692 268.177 320.57 267.826 321.358C271.837 323.152 273.764 320.983 275.796 318.696C278.09 316.112 280.518 313.379 286.234 316.037C288.442 317.065 290.531 318.279 292.573 319.466C299.625 323.564 306.103 327.331 314.915 321.892C316.312 321.031 317.843 317.785 314.144 315.249C304.928 308.93 291.648 297.87 289.854 294.229Z" fill="#DCAE92"/>
<path fill-rule="evenodd" clip-rule="evenodd" d="M199.3 104.376L188.469 102.518C169.821 149.1 137.266 191.425 90.8017 229.495L125.913 272.151C172.371 217.946 201.009 162.021 199.3 104.376Z" fill="#007479"/>
<path fill-rule="evenodd" clip-rule="evenodd" d="M246.514 240.486H150.069C150.069 240.486 183.585 158.993 183.585 102.032L212.678 97.6973C235.542 134.47 241.999 179.744 246.514 240.486Z" fill="#C7D1D9"/>
<path fill-rule="evenodd" clip-rule="evenodd" d="M290.352 281.819C279.805 162.824 213.317 97.6973 213.317 97.6973L213.294 97.7178C213.29 97.711 213.285 97.7041 213.281 97.6973H211.383C207.974 97.8146 200.999 98.1202 200.999 98.1202L193.97 118.21C192.854 154.951 180.942 266.295 180.942 266.295H244.071C243.964 271.4 243.726 276.577 243.344 281.819H290.352Z" fill="#00ACB0"/>
<path fill-rule="evenodd" clip-rule="evenodd" d="M244.061 266.789C244.564 244.556 242.592 223.682 239.302 204.791C237.581 227.207 233.984 254.179 226.473 266.789H244.061Z" fill="black" fill-opacity="0.1"/>
<path fill-rule="evenodd" clip-rule="evenodd" d="M230.092 227.96L198.918 213.468V227.96H230.092Z" fill="white" fill-opacity="0.2"/>
</svg>
