<svg width="378" height="497" viewBox="0 0 378 497" fill="none" xmlns="http://www.w3.org/2000/svg">
<path fill-rule="evenodd" clip-rule="evenodd" d="M167.607 94.4561C176.982 100.107 186.193 102.837 190.517 101.723C201.36 98.9277 202.357 59.2629 193.967 43.6257C185.578 27.9887 142.45 21.1731 140.276 52.1552C139.521 62.908 144.037 72.5043 150.708 80.3346L138.746 136.087H173.492L167.607 94.4561Z" fill="#915B3C"/>
<path fill-rule="evenodd" clip-rule="evenodd" d="M180.243 26.5949C156.119 17.58 137.2 34.9982 134.691 37.8659C132.032 40.9054 130.262 44.7036 128.953 48.5666C127.531 52.7626 126.651 57.1225 126.326 61.5649C126.017 65.7856 125.989 70.249 126.978 74.3796C127.904 78.2423 129.883 81.4112 133.188 83.4215C134.702 84.3424 136.33 85.0343 137.968 85.6665C139.583 86.2896 141.202 86.8955 142.893 87.2451C146.093 87.9066 149.781 87.793 152.246 85.2457C153.135 84.3272 154.112 83.1733 154.76 82.0514C154.993 81.6479 155.134 81.3841 154.851 80.9898C154.511 80.5175 153.963 80.1556 153.527 79.7861C151.042 77.6796 149.503 74.8672 149.116 71.525C148.722 68.134 149.633 63.757 152.93 62.277C157 60.4503 161.482 62.5472 165.099 64.5018C166.636 59.0761 169.793 54.1907 174.742 51.702C180.217 48.9485 186.499 48.6263 192.126 46.2639C193.592 45.6483 195.085 44.9495 196.164 43.6952C196.616 43.1709 197.145 42.4909 197.325 41.7975C197.562 40.8868 196.974 40.1232 196.52 39.4132C194.114 35.6484 189.432 30.0285 180.243 26.5949Z" fill="#4A312C"/>
<path d="M140.194 43.4319C152.187 43.4319 161.91 33.7093 161.91 21.7159C161.91 9.72255 152.187 0 140.194 0C128.201 0 118.478 9.72255 118.478 21.7159C118.478 33.7093 128.201 43.4319 140.194 43.4319Z" fill="#4A312C"/>
<path fill-rule="evenodd" clip-rule="evenodd" d="M135.754 81.2607C135.754 81.2607 124.026 109.005 114.139 118.157C118.478 127.351 141.505 126.244 141.505 126.244L150.187 85.62L135.754 81.2607Z" fill="#4A312C"/>
<path fill-rule="evenodd" clip-rule="evenodd" d="M75.9475 317.052H187.791L202.446 496.571H35.9575L75.9475 317.052Z" fill="#CED9E3"/>
<path fill-rule="evenodd" clip-rule="evenodd" d="M75.9475 317.052H110.346L130.934 496.571H35.9575L75.9475 317.052Z" fill="black" fill-opacity="0.15"/>
<path fill-rule="evenodd" clip-rule="evenodd" d="M249.241 352.618C236.674 379.273 217.035 443.978 217.035 443.978L233.707 451.595C233.707 451.595 276.011 383.579 301.865 337.084C300.66 347.551 299.434 359.335 298.298 371.722C295.603 401.068 298.296 464.47 299.745 482.784C300.656 494.295 316.296 491.883 317.755 482.755C318.003 481.209 319.01 475.78 320.514 467.681C327.888 427.967 347.186 324.027 347.219 298.577C347.234 288.336 327.226 279.136 315.301 286.297C307.111 277.557 291.609 272.52 282.703 286.957C277.041 296.135 263.588 322.191 249.241 352.618Z" fill="#915B3C"/>
<path fill-rule="evenodd" clip-rule="evenodd" d="M218.227 420.022L275.451 284.46C289.161 262.408 327.597 288.948 322.922 301.738C312.307 330.776 258.329 424.784 255.165 433.435L218.227 420.022Z" fill="#00112C"/>
<path fill-rule="evenodd" clip-rule="evenodd" d="M219.332 436.034C218.329 434.667 216.388 434.343 215.091 435.435C212.724 437.425 209.32 440.492 208.091 442.62C206.134 446.01 203.507 453.169 203.507 453.169C207.441 455.441 274.222 493.997 274.222 493.997C274.222 493.997 282.239 486.476 276.72 482.321C271.2 478.164 267.611 475.311 267.611 475.311L243.203 441.683C242.723 441.023 241.794 440.888 241.148 441.386L236.077 445.291C236.077 445.291 229.097 444.683 225.66 442.698C223.567 441.489 221.012 438.324 219.332 436.034Z" fill="#E4E4E4"/>
<path fill-rule="evenodd" clip-rule="evenodd" d="M300.096 473.818C298.544 473.136 296.699 473.827 296.122 475.421C295.068 478.326 293.653 482.686 293.653 485.142C293.653 489.058 294.958 496.571 294.958 496.571C299.501 496.571 376.613 496.571 376.613 496.571C376.613 496.571 379.796 486.049 372.938 485.209C366.08 484.371 361.545 483.695 361.545 483.695L323.592 466.775C322.847 466.442 321.975 466.791 321.664 467.545L319.225 473.463C319.225 473.463 312.876 476.426 308.908 476.426C306.492 476.426 302.696 474.962 300.096 473.818Z" fill="#E4E4E4"/>
<path fill-rule="evenodd" clip-rule="evenodd" d="M351.23 308.993C351.23 347.455 332.965 437.17 332.953 445.64L293.653 445.67C293.653 445.67 302.282 325.591 299.773 324.297C297.263 323.004 196.91 334.317 166.812 334.317C123.412 334.317 105.457 306.948 104.001 256.248H189.976C207.482 258.121 298.791 276.538 332.701 282.869C347.219 285.58 351.23 298.398 351.23 308.993Z" fill="#002743"/>
<path fill-rule="evenodd" clip-rule="evenodd" d="M308.83 190.992L251.669 198.789L261.925 224.398L308.306 206.01C328.297 207.982 337.964 207.507 337.306 204.585C336.752 202.122 334.627 201.378 332.669 200.693C331.145 200.159 329.722 199.661 329.222 198.413C328.08 195.564 334.579 189.657 340.984 184.318C347.388 178.978 343.09 177.996 340.387 178.075C330.783 180.326 320.264 184.631 308.83 190.992ZM30.7427 331.396C34.9853 322.79 72.1071 212.019 72.1071 212.019L103.809 212.138C103.809 212.138 51.6661 329.478 49.4329 335.013C46.5318 342.202 51.4597 352.648 54.8013 359.731C55.3183 360.827 55.7972 361.842 56.2035 362.753C51.5668 364.827 49.3395 362.32 46.9914 359.676C44.3392 356.69 41.5329 353.531 34.9266 356.603C32.3743 357.791 29.9592 359.194 27.5995 360.567C19.4488 365.304 11.9612 369.657 1.77525 363.371C0.160457 362.375 -1.6091 358.624 2.66648 355.692C13.3184 348.388 28.6687 335.605 30.7427 331.396Z" fill="#784931"/>
<path fill-rule="evenodd" clip-rule="evenodd" d="M158.94 111.475L183.762 113.129C189.875 168.434 223.172 203.366 297.723 191.54L307.626 262.761C237.949 271.766 176.84 243.87 164.316 168.34C161.074 148.787 158.515 128.439 158.94 111.475Z" fill="#F08F18"/>
<path fill-rule="evenodd" clip-rule="evenodd" d="M35.0913 317.052C52.3246 225.359 88.6985 154.42 144.213 104.236H146.594H146.676L146.696 104.259L184.303 112.872C184.303 158.047 194.354 191.801 204.016 224.253C208.188 238.267 212.288 252.039 215.476 266.382H113.909C112.478 282.815 111.599 299.706 111.141 317.052H35.0913Z" fill="#FFCC38"/>
<path fill-rule="evenodd" clip-rule="evenodd" d="M113.909 266.382C116.822 232.926 122.023 201.364 130.622 171.698C128.737 203.424 128.214 242.781 134.552 266.382H113.909Z" fill="black" fill-opacity="0.1"/>
</svg>
