<svg width="490" height="663" viewBox="0 0 490 663" fill="none" xmlns="http://www.w3.org/2000/svg">
<path fill-rule="evenodd" clip-rule="evenodd" d="M401.498 76.2553C404.887 79.8386 409.687 82.0887 415.027 82.0887C425.286 82.0887 433.603 73.8312 433.603 63.6452C433.603 53.4593 425.286 45.2018 415.027 45.2018V10.9497C444.212 10.9497 468.101 34.6679 468.101 63.6452C468.101 92.6223 444.212 116.341 415.027 116.341C399.696 116.341 385.841 109.901 376.397 99.6575L401.498 76.2553Z" fill="#F2F2F2"/>
<path fill-rule="evenodd" clip-rule="evenodd" d="M416.089 10.9497V45.6466C405.771 45.6466 397.406 54.0113 397.406 64.3296H362.709C362.709 34.976 386.736 10.9497 416.089 10.9497Z" fill="#42A5FF"/>
<path fill-rule="evenodd" clip-rule="evenodd" d="M397.897 62.9609C397.897 68.9842 400.733 74.3382 405.14 77.7951L383.462 105.391C370.844 95.5117 362.709 80.1968 362.709 62.9609H397.897Z" fill="#C5CFD6"/>
<path d="M31.4804 162.877C16.362 162.877 4.10612 150.621 4.10612 135.503C4.10612 120.384 16.362 108.128 31.4804 108.128C46.5988 108.128 58.8547 120.384 58.8547 135.503C58.8547 150.621 46.5988 162.877 31.4804 162.877Z" fill="#C1DEE2"/>
<path d="M401.718 447.57C391.513 447.57 383.24 439.297 383.24 429.092C383.24 418.887 391.513 410.615 401.718 410.615C411.923 410.615 420.196 418.887 420.196 429.092C420.196 439.297 411.923 447.57 401.718 447.57Z" fill="#89C5CC"/>
<path d="M297.522 138.955C287.317 138.955 279.045 130.683 279.045 120.478C279.045 110.273 287.317 102 297.522 102C307.727 102 316 110.273 316 120.478C316 130.683 307.727 138.955 297.522 138.955Z" fill="#56919C"/>
<path d="M334.651 420.196C324.446 420.196 316.173 411.923 316.173 401.718C316.173 391.513 324.446 383.24 334.651 383.24C344.856 383.24 353.128 391.513 353.128 401.718C353.128 411.923 344.856 420.196 334.651 420.196Z" fill="#56919C"/>
<path d="M267.584 295.642C253.599 295.642 242.263 284.306 242.263 270.321C242.263 256.337 253.599 245 267.584 245C281.568 245 292.905 256.337 292.905 270.321C292.905 284.306 281.568 295.642 267.584 295.642Z" fill="#C1DEE2"/>
<path d="M78.0167 194.358C57.6069 194.358 41.0614 177.812 41.0614 157.402C41.0614 136.992 57.6069 120.447 78.0167 120.447C98.4266 120.447 114.972 136.992 114.972 157.402C114.972 177.812 98.4266 194.358 78.0167 194.358Z" fill="#89C5CC"/>
<path d="M438.673 383.24C428.468 383.24 420.196 374.967 420.196 364.763C420.196 354.558 428.468 346.285 438.673 346.285C448.878 346.285 457.151 354.558 457.151 364.763C457.151 374.967 448.878 383.24 438.673 383.24Z" fill="#C1DEE2"/>
<path d="M476.997 459.888C469.816 459.888 463.994 454.067 463.994 446.886C463.994 439.704 469.816 433.883 476.997 433.883C484.178 433.883 490 439.704 490 446.886C490 454.067 484.178 459.888 476.997 459.888Z" fill="#C1DEE2"/>
<path d="M333.966 344.916C326.407 344.916 320.279 338.788 320.279 331.229C320.279 323.67 326.407 317.542 333.966 317.542C341.526 317.542 347.654 323.67 347.654 331.229C347.654 338.788 341.526 344.916 333.966 344.916Z" fill="#C1DEE2"/>
<path d="M210.782 314.805C197.931 314.805 187.514 304.387 187.514 291.536C187.514 278.686 197.931 268.268 210.782 268.268C223.633 268.268 234.05 278.686 234.05 291.536C234.05 304.387 223.633 314.805 210.782 314.805Z" fill="#C1DEE2"/>
<path d="M201.201 217.626C188.35 217.626 177.933 207.208 177.933 194.358C177.933 181.507 188.35 171.089 201.201 171.089C214.052 171.089 224.469 181.507 224.469 194.358C224.469 207.208 214.052 217.626 201.201 217.626Z" fill="#C1DEE2"/>
<path d="M383.24 317.542C370.39 317.542 359.972 307.124 359.972 294.274C359.972 281.423 370.39 271.006 383.24 271.006C396.091 271.006 406.508 281.423 406.508 294.274C406.508 307.124 396.091 317.542 383.24 317.542Z" fill="#89C5CC"/>
<path d="M131.397 260.056C116.278 260.056 104.022 247.8 104.022 232.682C104.022 217.563 116.278 205.307 131.397 205.307C146.515 205.307 158.771 217.563 158.771 232.682C158.771 247.8 146.515 260.056 131.397 260.056Z" fill="#89C5CC"/>
<path fill-rule="evenodd" clip-rule="evenodd" d="M271.959 242.601C262.195 248.501 252.602 251.352 248.099 250.188C236.807 247.27 235.769 205.856 244.506 189.528C253.243 173.201 298.159 166.085 300.423 198.434C301.208 209.661 296.506 219.681 289.559 227.857L302.016 286.069H265.831L271.959 242.601Z" fill="#B28B67"/>
<path fill-rule="evenodd" clip-rule="evenodd" d="M316.199 187.666C317.367 186.504 318.005 184.847 318.556 183.273C319.129 181.638 319.686 179.987 320.066 178.285C320.826 174.885 320.833 170.975 318.414 168.335C316.473 166.218 313.562 165.269 310.875 165.062C309.085 164.925 307.247 165.176 305.531 165.742C303.828 166.303 302.361 167.421 300.71 168.115C300.647 164.451 300.021 160.617 298.167 157.489C296.383 154.479 293.539 152.789 290.299 152.343C286.975 151.884 283.691 152.664 280.715 154.278C279.97 154.682 279.231 155.105 278.525 155.584C277.933 155.986 277.318 156.469 276.624 156.632C275.85 156.814 275.467 156.366 274.964 155.8C274.374 155.137 273.71 154.552 273.007 154.034C269.898 151.743 265.82 150.801 262.218 152.174C260.559 152.807 258.945 153.882 257.82 155.362C256.816 156.682 256.1 158.775 254.715 159.695C254.128 160.085 253.713 159.568 253.178 159.186C252.374 158.611 251.607 157.978 250.794 157.419C249.651 156.634 248.414 156.047 247.089 155.74C245.149 155.29 242.469 155.396 241.915 157.942C241.707 158.899 241.866 159.922 241.933 160.886C242.026 162.209 242.122 163.532 242.237 164.854C242.324 165.857 242.434 166.826 242.622 167.812C242.723 168.337 243.039 169.316 242.814 169.842C242.533 170.5 241.237 170.126 240.684 170.149C239.59 170.194 238.493 170.386 237.481 170.855C236.698 171.218 235.874 171.752 235.544 172.652C235.34 173.205 235.394 173.773 235.49 174.342C235.605 175.025 235.473 175.387 235.387 176.076C233.919 175.351 228.83 173.741 228.19 176.379C227.976 177.258 228.462 178.25 228.833 178.991C229.482 180.291 230.334 181.479 231.204 182.611C233.02 184.975 235.188 187.013 237.521 188.756C234.788 189.974 234.075 193.567 236.441 195.708C237.486 196.654 238.891 196.864 240.209 196.803C240.691 196.781 241.386 196.595 241.766 196.68C241.97 196.725 242.189 196.899 242.472 196.918C244.332 197.046 246.432 196.596 248.25 196.183C251.49 195.445 254.557 193.906 257.062 191.563C257.704 190.961 258.235 190.615 259.1 190.624C259.858 190.632 260.601 190.84 261.358 190.859C263.362 190.911 265.168 189.929 267.028 189.275C267.142 191.795 267.858 194.57 268.886 196.837C269.724 198.685 271.475 198.954 273.195 199.116C278.696 199.635 284.216 199.056 289.724 199.063C284.393 200.272 278.883 200.769 273.598 202.191C271.21 202.834 273.034 204.448 274.055 205.567C275.737 207.409 276.987 209.692 277.855 212.098C280.463 208.689 285.073 206.443 289.158 207.49C293.671 208.647 296.848 214.766 293.962 219.164C292.287 221.718 289.262 222.704 286.744 223.801C288.708 225.848 289.183 228.872 290.365 231.418C290.948 232.674 291.766 234.094 293.07 234.532C293.553 234.694 294.118 234.708 294.499 235.102C294.97 235.59 295.082 236.136 295.684 236.555C298.087 238.23 301.839 238.101 303.968 235.916C305.894 233.939 305.393 230.812 303.785 228.809C306.344 227.739 311.008 226.363 309.991 222.365C315.537 221.996 329.005 212.977 321.56 206.386C325.646 204.071 329.399 198.414 326.775 193.426C324.754 189.586 320.055 187.869 316.199 187.666Z" fill="#E0CEC6"/>
<path fill-rule="evenodd" clip-rule="evenodd" d="M367.417 475.019H250.938L235.676 662.458H409.064L367.417 475.019Z" fill="#C5CFD6"/>
<path fill-rule="evenodd" clip-rule="evenodd" d="M367.417 475.019H331.593L310.151 662.458H409.064L367.417 475.019Z" fill="black" fill-opacity="0.1"/>
<path fill-rule="evenodd" clip-rule="evenodd" d="M186.941 512.154C200.03 539.985 220.482 607.544 220.482 607.544L203.119 615.498C203.119 615.498 159.062 544.481 132.137 495.934C133.392 506.863 134.669 519.167 135.852 532.101C138.658 562.742 135.854 628.941 134.345 648.063C133.396 660.081 117.108 657.563 115.588 648.032C115.331 646.418 114.281 640.75 112.715 632.294C105.036 590.827 84.9379 482.302 84.9032 455.728C84.8881 445.036 105.725 435.43 118.144 442.907C126.673 433.781 142.818 428.522 152.093 443.596C157.99 453.179 172 480.385 186.941 512.154Z" fill="#B28B67"/>
<path fill-rule="evenodd" clip-rule="evenodd" d="M219.241 582.532L159.646 440.989C145.367 417.963 105.339 445.674 110.207 459.029C121.262 489.348 177.477 587.503 180.772 596.537L219.241 582.532Z" fill="#00112C"/>
<path fill-rule="evenodd" clip-rule="evenodd" d="M218.09 599.25C219.135 597.823 221.156 597.485 222.507 598.624C224.972 600.703 228.517 603.904 229.797 606.126C231.836 609.667 234.571 617.141 234.571 617.141C230.474 619.513 160.926 659.77 160.926 659.77C160.926 659.77 152.576 651.917 158.323 647.579C164.072 643.239 167.81 640.26 167.81 640.26L193.23 605.148C193.729 604.459 194.697 604.319 195.37 604.839L200.651 608.915C200.651 608.915 207.92 608.28 211.499 606.208C213.68 604.946 216.341 601.641 218.09 599.25Z" fill="#E4E4E4"/>
<path fill-rule="evenodd" clip-rule="evenodd" d="M133.98 638.701C135.596 637.99 137.517 638.711 138.118 640.375C139.216 643.409 140.689 647.96 140.689 650.525C140.689 654.614 139.331 662.458 139.331 662.458C134.599 662.458 54.2918 662.458 54.2918 662.458C54.2918 662.458 50.9763 651.472 58.1184 650.595C65.2605 649.72 69.9842 649.014 69.9842 649.014L109.509 631.348C110.286 631 111.193 631.364 111.518 632.152L114.058 638.331C114.058 638.331 120.669 641.424 124.802 641.424C127.318 641.424 131.272 639.896 133.98 638.701Z" fill="#E4E4E4"/>
<path fill-rule="evenodd" clip-rule="evenodd" d="M80.7267 466.604C80.7267 506.763 99.7482 600.437 99.7603 609.28L140.689 609.311C140.689 609.311 131.703 483.934 134.316 482.583C136.93 481.233 241.441 493.045 272.787 493.045C317.985 493.045 336.684 464.469 338.201 411.532H248.663C230.432 413.487 135.338 432.717 100.023 439.328C84.9032 442.158 80.7267 455.541 80.7267 466.604Z" fill="#002743"/>
<path fill-rule="evenodd" clip-rule="evenodd" d="M124.883 343.397L184.413 351.538L173.732 378.277L125.429 359.078C104.609 361.137 94.542 360.641 95.2265 357.591C95.8039 355.018 98.0173 354.242 100.056 353.526C101.643 352.969 103.125 352.449 103.646 351.146C104.835 348.171 98.067 342.004 91.3969 336.429C84.7267 330.854 89.2031 329.828 92.018 329.91C102.02 332.261 112.975 336.756 124.883 343.397ZM414.495 489.997C410.076 481.01 371.416 365.353 371.416 365.353L338.401 365.477C338.401 365.477 392.704 487.994 395.03 493.773C398.051 501.279 392.919 512.186 389.439 519.582C388.901 520.726 388.402 521.786 387.979 522.737C392.808 524.903 395.127 522.285 397.573 519.524C400.335 516.406 403.257 513.108 410.138 516.315C412.796 517.556 415.311 519.021 417.768 520.454C426.257 525.4 434.055 529.945 444.663 523.382C446.344 522.342 448.187 518.425 443.735 515.364C432.641 507.738 416.655 494.391 414.495 489.997Z" fill="#997659"/>
<path fill-rule="evenodd" clip-rule="evenodd" d="M280.984 260.372L255.134 262.099C248.767 319.844 214.091 356.318 136.451 343.97L126.136 418.333C198.702 427.735 262.343 398.608 275.386 319.746C278.762 299.33 281.427 278.085 280.984 260.372Z" fill="#007479"/>
<path fill-rule="evenodd" clip-rule="evenodd" d="M409.966 475.02C392.019 379.281 354.137 305.212 296.322 252.814H293.842H293.758L293.737 252.838L254.57 261.831C254.57 308.999 244.104 344.243 234.041 378.126C229.696 392.759 225.426 407.138 222.106 422.114H327.883C329.373 439.272 330.288 456.908 330.764 475.02H409.966Z" fill="#00ACB0"/>
<path fill-rule="evenodd" clip-rule="evenodd" d="M327.882 422.114C324.849 387.181 319.431 354.227 310.477 323.252C312.44 356.377 312.984 397.471 306.383 422.114H327.882Z" fill="black" fill-opacity="0.1"/>
<path d="M21.8994 0H161.508C164.532 0 166.983 2.45118 166.983 5.47486V16.4246C166.983 19.4483 164.532 21.8994 161.508 21.8994H21.8994C18.8757 21.8994 16.4245 19.4483 16.4245 16.4246V5.47486C16.4245 2.45118 18.8757 0 21.8994 0Z" fill="#002743"/>
<path d="M76.6479 32.8492H161.508C164.532 32.8492 166.983 35.3004 166.983 38.324V49.2738C166.983 52.2974 164.532 54.7486 161.508 54.7486H76.6479C73.6243 54.7486 71.1731 52.2974 71.1731 49.2738V38.324C71.1731 35.3004 73.6243 32.8492 76.6479 32.8492Z" fill="#C1DEE2"/>
<path d="M54.7485 65.6983H161.508C164.532 65.6983 166.983 68.1495 166.983 71.1732V82.1229C166.983 85.1466 164.532 87.5977 161.508 87.5977H54.7485C51.7248 87.5977 49.2736 85.1466 49.2736 82.1229V71.1732C49.2736 68.1495 51.7248 65.6983 54.7485 65.6983Z" fill="#C1DEE2"/>
<path d="M481.788 585.81C481.788 583.542 483.626 581.704 485.894 581.704C488.162 581.704 490 583.542 490 585.81V611.816C490 614.084 488.162 615.922 485.894 615.922C483.626 615.922 481.788 614.084 481.788 611.816V585.81Z" fill="#42A5FF"/>
<path d="M462.626 563.911C462.626 561.643 464.464 559.805 466.732 559.805C469 559.805 470.838 561.643 470.838 563.911V611.816C470.838 614.084 469 615.922 466.732 615.922C464.464 615.922 462.626 614.084 462.626 611.816V563.911Z" fill="#42A5FF"/>
<path d="M443.464 552.961C443.464 550.693 445.302 548.855 447.57 548.855C449.838 548.855 451.676 550.693 451.676 552.961V611.816C451.676 614.084 449.838 615.922 447.57 615.922C445.302 615.922 443.464 614.084 443.464 611.816V552.961Z" fill="#42A5FF"/>
<path d="M424.302 563.911C424.302 561.643 426.14 559.805 428.408 559.805C430.676 559.805 432.514 561.643 432.514 563.911V611.816C432.514 614.084 430.676 615.922 428.408 615.922C426.14 615.922 424.302 614.084 424.302 611.816V563.911Z" fill="#42A5FF"/>
<path d="M405.14 542.011C405.14 539.744 406.978 537.905 409.246 537.905C411.514 537.905 413.352 539.744 413.352 542.011V611.816C413.352 614.084 411.514 615.922 409.246 615.922C406.978 615.922 405.14 614.084 405.14 611.816V542.011Z" fill="#002743"/>
<path fill-rule="evenodd" clip-rule="evenodd" d="M79.3855 591.991C79.3855 569.776 61.5197 551.592 39.6928 551.592V591.991L66.8193 621.397C74.5348 614.208 79.3855 603.661 79.3855 591.991Z" fill="#F2F2F2"/>
<path fill-rule="evenodd" clip-rule="evenodd" d="M41.2092 591.285H1.36862C1.36862 601.646 5.5692 611.356 12.2116 618.412C19.5164 626.127 29.9187 630.978 41.2092 630.978C51.6087 630.978 61.1295 626.792 68.4357 620.176L41.2092 591.285Z" fill="#AFB9C5"/>
<path fill-rule="evenodd" clip-rule="evenodd" d="M7.62939e-06 591.285C7.62939e-06 569.458 17.8658 551.592 39.6928 551.592V591.285H7.62939e-06ZM59.5391 551.592L43.662 587.316L79.3855 571.439C75.8528 562.178 67.9198 555.125 59.5391 551.592Z" fill="#8991DC"/>
<path d="M336.02 454.413C325.059 454.413 316.173 445.528 316.173 434.567C316.173 423.606 325.059 414.721 336.02 414.721C346.98 414.721 355.866 423.606 355.866 434.567C355.866 445.528 346.98 454.413 336.02 454.413Z" fill="#89C5CC"/>
<path d="M277.849 329.86C272.558 329.86 268.268 325.571 268.268 320.279C268.268 314.988 272.558 310.698 277.849 310.698C283.14 310.698 287.43 314.988 287.43 320.279C287.43 325.571 283.14 329.86 277.849 329.86Z" fill="#C1DEE2"/>
<path d="M157.402 332.598C146.063 332.598 136.871 323.406 136.871 312.067C136.871 300.728 146.063 291.536 157.402 291.536C168.741 291.536 177.933 300.728 177.933 312.067C177.933 323.406 168.741 332.598 157.402 332.598Z" fill="#89C5CC"/>
</svg>
