<svg width="472" height="349" viewBox="0 0 472 349" fill="none" xmlns="http://www.w3.org/2000/svg">
<path fill-rule="evenodd" clip-rule="evenodd" d="M412.585 96.9814C412.296 96.7689 411.613 96.6933 411.295 96.6297C409.973 96.3652 408.61 96.2502 407.262 96.2502C403.106 96.2563 398.882 96.6703 394.794 97.3869C392.199 97.8415 389.061 99.3715 386.479 98.5405C381.982 97.0928 377.436 97.1636 373.169 99.2305C369.268 101.121 366.306 104.711 364.578 108.59C364.317 109.175 363.259 111.33 362.96 112.783C362.831 113.08 362.709 113.379 362.598 113.683C362.283 114.545 362.001 115.422 361.739 116.3C361.626 116.675 361.345 117.503 361.679 117.663C361.144 118.664 360.671 119.695 360.276 120.76C359.128 123.858 357.872 127.255 357.469 130.537C357.32 131.752 357.314 132.975 357.453 134.193C357.521 134.795 357.493 136.006 357.895 136.463C358.749 137.435 359.188 136.075 359.091 135.427C358.356 130.492 359.776 125.857 361.458 121.217C362.546 118.218 364.333 115.473 366.335 112.987C367.956 110.975 369.694 109.391 371.915 108.057C374.632 106.426 377.536 105.107 380.413 103.784C382.306 102.914 384.2 102.067 386.146 101.317C386.578 101.15 387.259 100.722 387.739 100.721C388.753 100.718 390.19 101.477 391.17 101.759C394.392 102.688 397.656 103.878 400.986 104.352C403.122 104.657 405.124 104.314 407.122 103.592C407.326 103.519 407.668 103.329 408.087 103.059C409.57 102.479 410.973 101.751 412.195 100.701C412.899 100.095 413.537 99.3128 414.12 98.5968C414.294 98.3831 414.371 98.1374 414.374 97.9044C414.506 97.8342 414.593 97.7525 414.614 97.6569C414.759 96.9523 413.434 96.9396 412.585 96.9814Z" fill="#89C5CC"/>
<path fill-rule="evenodd" clip-rule="evenodd" d="M406.967 116.583C405.117 116.177 403.074 116.208 401.19 116.242C391.084 116.38 381.161 121.19 374.702 128.875C369.203 135.418 367.692 143.553 366.605 151.776C366.498 152.592 366.452 153.403 366.391 154.222C366.378 154.397 366.358 154.554 366.337 154.702C365.91 155.085 365.687 155.533 365.939 156.025C364.998 158.095 364.202 160.218 363.519 162.407C361.509 168.852 359.464 175.419 360.723 182.196C361.018 178.466 361.637 174.653 362.377 170.985C362.42 170.774 362.466 170.565 362.513 170.357C362.519 170.335 362.523 170.314 362.528 170.292C362.79 169.168 363.131 168.079 363.545 167.007C363.55 166.994 363.554 166.983 363.558 166.971C363.613 166.83 363.671 166.69 363.729 166.55C363.847 166.259 363.969 165.969 364.098 165.68C364.142 165.582 364.184 165.482 364.224 165.383C364.827 163.896 365.082 162.222 365.623 160.684C365.752 160.334 365.887 159.986 366.028 159.639C366.037 159.619 366.045 159.599 366.054 159.578C366.436 158.646 366.859 157.725 367.306 156.813C367.55 156.63 367.679 156.174 367.888 155.76C367.932 155.679 368.271 155.135 368.372 154.822C368.635 154.31 368.897 153.797 369.163 153.287C369.154 153.29 369.147 153.292 369.139 153.295C369.404 152.804 369.67 152.316 369.934 151.829C369.992 151.722 370.051 151.615 370.11 151.508C370.204 151.337 370.299 151.166 370.394 150.996C371.279 149.404 372.217 147.843 373.192 146.302C373.54 145.752 374.372 144.963 374.531 144.345C374.536 144.322 374.538 144.301 374.542 144.279C376.656 141.292 379.092 138.538 382.011 136.355C381.659 136.739 380.908 138.041 380.71 138.298C380.103 139.087 379.444 139.822 378.782 140.565C377.598 141.898 376.441 143.272 375.413 144.725C373.534 147.382 371.912 150.179 370.38 153.031C370.365 153.048 370.349 153.064 370.336 153.081C369.565 154.036 369.08 155.479 368.526 156.571C370.72 155.549 373.147 154.883 375.399 153.976C377.645 153.071 379.83 152.064 381.94 150.881C384.743 149.309 387.651 147.534 390.3 145.526C393.336 143.632 395.887 141.027 398.139 138.293C400.803 135.057 403.245 131.794 404.755 127.865C405.496 125.935 406.08 123.923 406.426 121.886C406.441 121.798 406.46 121.702 406.481 121.601C406.835 120.898 407.152 120.179 407.417 119.443C407.839 118.277 408.835 116.993 406.967 116.583Z" fill="#56919C"/>
<path fill-rule="evenodd" clip-rule="evenodd" d="M423.747 181.436C422.67 178.957 420.388 177.039 418.147 175.619C409.394 170.07 399.131 168.157 388.992 168.573C383.436 168.801 377.836 170.027 372.558 171.653C369.511 172.592 366.553 173.821 363.902 175.594C362.113 176.791 360.519 178.208 359.057 179.787C357.276 181.71 355.556 183.735 354.027 185.869C353.425 186.71 350.05 191.056 351.438 192.045C351.359 192.155 351.29 192.263 351.238 192.367C345.062 195.351 339.553 199.944 334.371 204.324C329.86 208.136 325.495 212.095 321.539 216.488C316.33 222.271 311.467 228.41 307.015 234.804C306.058 236.178 305.126 237.569 304.2 238.965C303.411 240.157 302.621 241.348 301.833 242.539C300.949 243.875 299.746 245.295 299.124 246.785C298.583 248.084 299.698 248.542 300.466 247.395C301.393 246.011 302.259 244.584 303.195 243.203C304.436 241.37 305.68 239.539 306.931 237.713C315.621 225.029 325.928 213.638 337.909 204.048C342.757 200.168 347.699 196.717 353.153 193.741C357.947 191.125 363.126 188.932 368.2 187.048C373.131 185.218 378.12 183.54 383.331 182.644C387.561 181.919 391.868 181.68 396.167 181.644C401.627 181.597 407.043 181.607 412.467 182.353C415.286 182.741 418.082 183.26 420.894 183.7C421.4 183.779 421.931 183.881 422.439 183.923C424.132 184.063 424.333 182.785 423.747 181.436Z" fill="#C1DEE2"/>
<path fill-rule="evenodd" clip-rule="evenodd" d="M89.0167 131.17C88.2006 131.819 87.4 132.483 86.619 133.173C86.0237 133.699 84.9707 134.328 84.7571 135.125C84.5346 135.953 85.2362 136.729 85.7898 137.229C88.719 139.878 92.0175 141.668 96.0767 141.965C102.326 142.424 107.766 140.856 113.188 137.77C116.998 135.602 119.521 132.396 120.072 128.067C124.608 129.92 128.995 132.473 132.724 135.606C134.563 137.153 136.148 138.866 137.614 140.765C138.552 141.982 139.46 143.218 140.303 144.501C140.669 145.059 141.042 146.048 141.646 146.369C142.356 146.746 143.214 146.155 143.179 145.379C143.149 144.734 142.44 143.986 142.108 143.458C141.558 142.581 140.999 141.711 140.41 140.859C139.457 139.48 138.472 138.119 137.398 136.828C134.985 133.928 131.914 131.531 128.73 129.487C122.623 125.567 115.92 123.098 108.489 122.888C103.92 122.76 100.076 124.294 96.1685 126.585C93.7357 128.011 91.2241 129.413 89.0167 131.17Z" fill="#C7D1D9"/>
<path fill-rule="evenodd" clip-rule="evenodd" d="M138.13 131.359C133.38 126.387 128.614 121.477 123.308 117.099C120.18 114.518 116.884 112.173 113.657 109.726C114.029 110.058 114.394 110.399 114.751 110.749C113.743 110.054 112.424 109.661 111.356 109.017C110.164 108.299 109.025 107.478 107.909 106.65C105.727 105.035 103.58 103.389 101.338 101.858C98.8405 100.153 96.2526 98.5767 93.7123 96.9353C91.5569 95.542 89.3752 94.0174 87.0688 92.8789C85.8118 92.2579 84.5518 91.5225 83.29 90.8749C82.8677 90.6582 78.5818 87.9074 78.5926 87.8995C78.8294 87.7179 80.986 88.7481 81.3195 88.8867C82.2938 89.291 83.2256 89.7752 84.1622 90.257C83.6486 89.2262 83.2411 88.1434 83.0198 87.0031C82.9512 86.6515 82.4029 84.0894 82.6839 83.8746C82.8235 83.7674 84.1909 88.3504 84.2613 88.791C84.3179 89.1493 84.3096 89.6644 84.4247 90.0034C84.6109 90.5511 84.6019 90.3859 85.0118 90.694C85.7629 91.2593 86.7604 91.6127 87.5735 92.0848C88.012 92.3336 89.3698 93.3207 90.1877 93.6022C92.6623 94.8236 95.1704 96.7029 97.5215 98.2638C96.9046 97.0848 96.4345 95.8519 96.0921 94.5603C96.011 94.254 95.1322 91.5026 95.3452 91.3391C95.585 91.1558 97.2596 95.3574 97.3586 95.7551C97.543 96.4941 97.5812 97.316 97.812 98.0351C98.065 98.8243 98.8555 99.1039 99.5672 99.5639C102.187 101.256 104.717 103.054 107.205 104.934C109.92 100.027 106.79 94.1009 104.152 89.9828C102.251 87.0152 99.6907 84.4708 96.9876 82.2501C93.3806 79.2856 89.2535 76.9172 85.1317 74.751C80.3286 72.2265 75.1378 70.6625 69.7411 69.9405C66.918 69.5622 64.0306 69.5731 61.1795 69.6941C59.7865 69.7535 58.4496 69.9405 57.115 70.4023C56.5131 70.6111 55.932 70.8732 55.3652 71.1673C54.9351 71.3907 53.8935 71.6267 53.6459 71.9596C51.6086 74.6554 50.5663 77.3415 50.7256 80.7285C50.876 83.9351 51.8722 87.1435 53.2241 90.004C54.7299 93.1888 56.6664 96.0795 59.1989 98.5053C61.1312 100.357 63.292 101.967 65.4379 103.557C73.0706 109.212 82.7483 114.13 92.6343 112.867C95.8344 112.458 98.8781 111.32 101.723 109.775C102.393 109.41 103.059 109.042 103.691 108.611C104.118 108.321 105.259 107.015 105.688 106.967C106.275 106.903 107.542 108.119 108.094 108.488C112.287 111.302 116.371 114.268 120.368 117.354C124.621 120.638 128.666 124.144 132.592 127.816C134.261 129.378 135.92 130.943 137.541 132.557C137.918 132.933 138.841 134.316 139.526 134.378C139.959 134.418 140.25 134.042 140.188 133.635C140.081 132.927 138.616 131.869 138.13 131.359Z" fill="#C1DEE2"/>
<mask id="mask0_57_245" style="mask-type:luminance" maskUnits="userSpaceOnUse" x="88" y="32" width="115" height="165">
<path d="M202.241 32.0935H88.2942V196.722H202.241V32.0935Z" fill="white"/>
</mask>
<g mask="url(#mask0_57_245)">
<path fill-rule="evenodd" clip-rule="evenodd" d="M95.5363 148.302C94.7459 148.302 93.9578 148.318 93.1685 148.359C92.5665 148.391 91.6472 148.265 91.1383 148.646C90.6092 149.041 90.6456 149.849 90.7285 150.421C91.1652 153.442 92.2313 156.121 94.4619 158.262C97.8964 161.557 101.833 163.232 106.492 163.978C109.765 164.502 112.786 163.774 115.195 161.413C116.955 164.728 118.291 168.396 118.961 172.097C119.291 173.924 119.392 175.729 119.334 177.589C119.296 178.78 119.232 179.969 119.106 181.154C119.051 181.669 118.792 182.449 118.991 182.936C119.224 183.507 120.011 183.563 120.364 183.075C120.658 182.67 120.605 181.873 120.665 181.393C120.765 180.595 120.858 179.797 120.924 178.995C121.032 177.698 121.111 176.398 121.106 175.095C121.092 172.17 120.451 169.233 119.574 166.456C117.891 161.128 115.162 156.393 110.917 152.678C108.306 150.394 105.318 149.469 101.929 148.972C99.8186 148.663 97.6739 148.302 95.5363 148.302Z" fill="#89C5CC"/>
<path fill-rule="evenodd" clip-rule="evenodd" d="M107.725 169.486C99.1945 169.486 93.4494 176.461 90.7332 183.71C89.7089 186.443 89.4691 189.443 89.0741 192.312C88.9476 193.233 88.9948 194.636 88.6261 195.457C88.4925 195.754 88.1858 195.861 88.3326 196.266C88.4215 196.512 88.5951 196.662 88.857 196.711C89.3933 196.811 90.1521 196.218 90.6121 195.984C94.4278 194.043 96.9347 191.041 98.9798 187.368C100.248 185.092 101.534 182.728 102.287 180.229C102.747 178.702 103.015 177.094 103.173 175.511C103.235 174.887 103.294 174.248 103.291 173.621C103.287 172.998 103.001 172.669 102.796 172.127C105.642 171.034 108.856 170.736 111.739 171.869C114.406 172.916 116.621 174.941 117.861 177.485C118.183 178.146 118.432 178.843 118.613 179.555C118.731 180.021 118.737 180.625 118.957 181.046C119.489 182.068 120.609 181.385 120.502 180.434C120.202 177.783 118.707 175.12 116.795 173.277C114.385 170.951 111.118 169.486 107.725 169.486Z" fill="#89C5CC"/>
<path d="M197.469 32.0935H121.703C119.067 32.0935 116.93 34.2613 116.93 36.9355V191.275C116.93 193.949 119.067 196.117 121.703 196.117H197.469C200.105 196.117 202.241 193.949 202.241 191.275V36.9355C202.241 34.2613 200.105 32.0935 197.469 32.0935Z" fill="#C7D1D9"/>
<path d="M159.287 186.433C164.23 186.433 168.236 182.368 168.236 177.354C168.236 172.34 164.23 168.275 159.287 168.275C154.345 168.275 150.339 172.34 150.339 177.354C150.339 182.368 154.345 186.433 159.287 186.433Z" fill="white"/>
<path d="M151.532 42.9881C152.191 42.9881 152.725 42.4462 152.725 41.7776C152.725 41.1091 152.191 40.5671 151.532 40.5671C150.873 40.5671 150.339 41.1091 150.339 41.7776C150.339 42.4462 150.873 42.9881 151.532 42.9881Z" fill="white"/>
<path d="M167.043 40.5671H156.901C156.242 40.5671 155.708 41.1091 155.708 41.7776C155.708 42.4462 156.242 42.9881 156.901 42.9881H167.043C167.702 42.9881 168.236 42.4462 168.236 41.7776C168.236 41.1091 167.702 40.5671 167.043 40.5671Z" fill="white"/>
<mask id="mask1_57_245" style="mask-type:luminance" maskUnits="userSpaceOnUse" x="126" y="49" width="67" height="111">
<path d="M192.099 49.0405H126.475V159.802H192.099V49.0405Z" fill="white"/>
</mask>
<g mask="url(#mask1_57_245)">
<mask id="mask2_57_245" style="mask-type:luminance" maskUnits="userSpaceOnUse" x="126" y="49" width="67" height="30">
<path d="M192.099 49.0405H126.475V78.0926H192.099V49.0405Z" fill="white"/>
</mask>
<g mask="url(#mask2_57_245)">
<path d="M189.713 49.0405H128.862C127.544 49.0405 126.475 50.1244 126.475 51.4615V75.6716C126.475 77.0087 127.544 78.0926 128.862 78.0926H189.713C191.031 78.0926 192.099 77.0087 192.099 75.6716V51.4615C192.099 50.1244 191.031 49.0405 189.713 49.0405Z" fill="white"/>
<mask id="mask3_57_245" style="mask-type:luminance" maskUnits="userSpaceOnUse" x="131" y="57" width="32" height="13">
<path d="M162.867 57.7561H131.844V69.3769H162.867V57.7561Z" fill="white"/>
</mask>
<g mask="url(#mask3_57_245)">
<path d="M161.077 57.7561H133.634C132.646 57.7561 131.844 58.569 131.844 59.5719V60.2982C131.844 61.301 132.646 62.1139 133.634 62.1139H161.077C162.065 62.1139 162.867 61.301 162.867 60.2982V59.5719C162.867 58.569 162.065 57.7561 161.077 57.7561Z" fill="#C7D1D9"/>
<path d="M150.878 65.019H133.634C132.646 65.019 131.844 65.832 131.844 66.8348V67.5611C131.844 68.5639 132.646 69.3769 133.634 69.3769H150.878C151.866 69.3769 152.668 68.5639 152.668 67.5611V66.8348C152.668 65.832 151.866 65.019 150.878 65.019Z" fill="#C7D1D9"/>
</g>
<path d="M185.086 67.8034C187.392 67.8034 189.262 65.9065 189.262 63.5666C189.262 61.2267 187.392 59.3298 185.086 59.3298C182.78 59.3298 180.91 61.2267 180.91 63.5666C180.91 65.9065 182.78 67.8034 185.086 67.8034Z" fill="#C7D1D9"/>
<path d="M185.085 65.3825C186.074 65.3825 186.875 64.5695 186.875 63.5667C186.875 62.5639 186.074 61.751 185.085 61.751C184.097 61.751 183.296 62.5639 183.296 63.5667C183.296 64.5695 184.097 65.3825 185.085 65.3825Z" fill="#F2F2F2"/>
</g>
<mask id="mask4_57_245" style="mask-type:luminance" maskUnits="userSpaceOnUse" x="126" y="82" width="67" height="24">
<path d="M192.099 82.9343H126.475V105.329H192.099V82.9343Z" fill="white"/>
</mask>
<g mask="url(#mask4_57_245)">
<path d="M189.713 82.9343H128.862C127.544 82.9343 126.475 84.0182 126.475 85.3553V102.908C126.475 104.245 127.544 105.329 128.862 105.329H189.713C191.031 105.329 192.099 104.245 192.099 102.908V85.3553C192.099 84.0182 191.031 82.9343 189.713 82.9343Z" fill="white"/>
<mask id="mask5_57_245" style="mask-type:luminance" maskUnits="userSpaceOnUse" x="149" y="89" width="32" height="10">
<path d="M180.764 89.6528H149.742V98.6106H180.764V89.6528Z" fill="white"/>
</mask>
<g mask="url(#mask5_57_245)">
<path d="M179.108 89.6528H151.397C150.483 89.6528 149.742 90.4048 149.742 91.3324C149.742 92.26 150.483 93.012 151.397 93.012H179.108C180.023 93.012 180.764 92.26 180.764 91.3324C180.764 90.4048 180.023 89.6528 179.108 89.6528Z" fill="#C7D1D9"/>
<path d="M168.909 95.2515H151.397C150.483 95.2515 149.741 96.0034 149.741 96.931C149.741 97.8586 150.483 98.6106 151.397 98.6106H168.909C169.823 98.6106 170.565 97.8586 170.565 96.931C170.565 96.0034 169.823 95.2515 168.909 95.2515Z" fill="#C7D1D9"/>
</g>
<path d="M139.003 101.395C142.957 101.395 146.162 98.1429 146.162 94.1317C146.162 90.1204 142.957 86.8687 139.003 86.8687C135.05 86.8687 131.844 90.1204 131.844 94.1317C131.844 98.1429 135.05 101.395 139.003 101.395Z" fill="#C5CFD6"/>
</g>
<mask id="mask6_57_245" style="mask-type:luminance" maskUnits="userSpaceOnUse" x="126" y="110" width="67" height="23">
<path d="M192.099 110.171H126.475V132.565H192.099V110.171Z" fill="white"/>
</mask>
<g mask="url(#mask6_57_245)">
<path d="M189.713 110.171H128.862C127.544 110.171 126.475 111.255 126.475 112.592V130.144C126.475 131.481 127.544 132.565 128.862 132.565H189.713C191.031 132.565 192.099 131.481 192.099 130.144V112.592C192.099 111.255 191.031 110.171 189.713 110.171Z" fill="white"/>
<mask id="mask7_57_245" style="mask-type:luminance" maskUnits="userSpaceOnUse" x="131" y="116" width="32" height="10">
<path d="M162.867 116.889H131.844V125.847H162.867V116.889Z" fill="white"/>
</mask>
<g mask="url(#mask7_57_245)">
<path d="M161.211 116.889H133.5C132.586 116.889 131.844 117.641 131.844 118.569C131.844 119.496 132.586 120.248 133.5 120.248H161.211C162.126 120.248 162.867 119.496 162.867 118.569C162.867 117.641 162.126 116.889 161.211 116.889Z" fill="#C7D1D9"/>
<path d="M151.012 122.488H133.5C132.586 122.488 131.844 123.24 131.844 124.167C131.844 125.095 132.586 125.847 133.5 125.847H151.012C151.926 125.847 152.668 125.095 152.668 124.167C152.668 123.24 151.926 122.488 151.012 122.488Z" fill="#C7D1D9"/>
</g>
<path d="M185.086 125.605C187.392 125.605 189.262 123.708 189.262 121.368C189.262 119.028 187.392 117.131 185.086 117.131C182.78 117.131 180.91 119.028 180.91 121.368C180.91 123.708 182.78 125.605 185.086 125.605Z" fill="#C7D1D9"/>
<path d="M185.085 123.184C186.074 123.184 186.875 122.371 186.875 121.368C186.875 120.365 186.074 119.552 185.085 119.552C184.097 119.552 183.296 120.365 183.296 121.368C183.296 122.371 184.097 123.184 185.085 123.184Z" fill="#F2F2F2"/>
</g>
<mask id="mask8_57_245" style="mask-type:luminance" maskUnits="userSpaceOnUse" x="126" y="137" width="67" height="23">
<path d="M192.099 137.407H126.475V159.801H192.099V137.407Z" fill="white"/>
</mask>
<g mask="url(#mask8_57_245)">
<path d="M189.713 137.407H128.862C127.544 137.407 126.475 138.491 126.475 139.828V157.38C126.475 158.717 127.544 159.801 128.862 159.801H189.713C191.031 159.801 192.099 158.717 192.099 157.38V139.828C192.099 138.491 191.031 137.407 189.713 137.407Z" fill="white"/>
<mask id="mask9_57_245" style="mask-type:luminance" maskUnits="userSpaceOnUse" x="149" y="144" width="32" height="10">
<path d="M180.764 144.126H149.742V153.083H180.764V144.126Z" fill="white"/>
</mask>
<g mask="url(#mask9_57_245)">
<path d="M179.108 144.126H151.397C150.483 144.126 149.742 144.878 149.742 145.805C149.742 146.733 150.483 147.485 151.397 147.485H179.108C180.023 147.485 180.764 146.733 180.764 145.805C180.764 144.878 180.023 144.126 179.108 144.126Z" fill="#C7D1D9"/>
<path d="M168.909 149.725H151.397C150.483 149.725 149.741 150.477 149.741 151.404C149.741 152.332 150.483 153.084 151.397 153.084H168.909C169.823 153.084 170.565 152.332 170.565 151.404C170.565 150.477 169.823 149.725 168.909 149.725Z" fill="#C7D1D9"/>
</g>
<path d="M139.003 155.868C142.957 155.868 146.162 152.616 146.162 148.605C146.162 144.593 142.957 141.342 139.003 141.342C135.05 141.342 131.844 144.593 131.844 148.605C131.844 152.616 135.05 155.868 139.003 155.868Z" fill="#C5CFD6"/>
</g>
</g>
</g>
<mask id="mask10_57_245" style="mask-type:luminance" maskUnits="userSpaceOnUse" x="184" y="59" width="182" height="190">
<path d="M365.108 59.9348H184.94V248.168H365.108V59.9348Z" fill="white"/>
</mask>
<g mask="url(#mask10_57_245)">
<path d="M360.335 59.9348H189.713C187.077 59.9348 184.94 62.1027 184.94 64.7768V243.326C184.94 246 187.077 248.168 189.713 248.168H360.335C362.971 248.168 365.108 246 365.108 243.326V64.7768C365.108 62.1027 362.971 59.9348 360.335 59.9348Z" fill="#F2F2F2"/>
<path d="M351.983 83.5396H323.944C321.308 83.5396 319.171 85.7074 319.171 88.3816V122.881C319.171 125.555 321.308 127.723 323.944 127.723H351.983C354.619 127.723 356.756 125.555 356.756 122.881V88.3816C356.756 85.7074 354.619 83.5396 351.983 83.5396Z" fill="white"/>
<path d="M337.964 108.914C342.709 108.914 346.555 104.995 346.555 100.161C346.555 95.3267 342.709 91.408 337.964 91.408C333.22 91.408 329.374 95.3267 329.374 100.161C329.374 104.995 333.22 108.914 337.964 108.914Z" fill="#C7D1D9"/>
<path d="M349.769 111.102H326.158C325.265 111.102 324.541 111.837 324.541 112.743C324.541 113.65 325.265 114.384 326.158 114.384H349.769C350.663 114.384 351.387 113.65 351.387 112.743C351.387 111.837 350.663 111.102 349.769 111.102Z" fill="#C7D1D9"/>
<path d="M345.474 116.573H330.454C329.561 116.573 328.836 117.307 328.836 118.214C328.836 119.12 329.561 119.855 330.454 119.855H345.474C346.368 119.855 347.092 119.12 347.092 118.214C347.092 117.307 346.368 116.573 345.474 116.573Z" fill="#C7D1D9"/>
<path d="M184.94 64.7768C184.94 62.1028 187.077 59.9348 189.713 59.9348H360.335C362.971 59.9348 365.108 62.1028 365.108 64.7768V74.4609H184.94V64.7768Z" fill="#C5CFD6"/>
<path d="M192.696 70.8291C194.014 70.8291 195.082 69.7452 195.082 68.4081C195.082 67.071 194.014 65.9871 192.696 65.9871C191.378 65.9871 190.31 67.071 190.31 68.4081C190.31 69.7452 191.378 70.8291 192.696 70.8291Z" fill="#F2F2F2"/>
<path d="M199.855 70.8291C201.173 70.8291 202.242 69.7452 202.242 68.4081C202.242 67.071 201.173 65.9871 199.855 65.9871C198.537 65.9871 197.469 67.071 197.469 68.4081C197.469 69.7452 198.537 70.8291 199.855 70.8291Z" fill="#F2F2F2"/>
<path d="M207.015 70.8291C208.333 70.8291 209.401 69.7452 209.401 68.4081C209.401 67.071 208.333 65.9871 207.015 65.9871C205.697 65.9871 204.628 67.071 204.628 68.4081C204.628 69.7452 205.697 70.8291 207.015 70.8291Z" fill="#F2F2F2"/>
<mask id="mask11_57_245" style="mask-type:luminance" maskUnits="userSpaceOnUse" x="319" y="131" width="38" height="107">
<path d="M356.756 131.96H319.171V237.274H356.756V131.96Z" fill="white"/>
</mask>
<g mask="url(#mask11_57_245)">
<path d="M351.983 131.96H323.944C321.308 131.96 319.171 134.128 319.171 136.802V232.432C319.171 235.106 321.308 237.274 323.944 237.274H351.983C354.619 237.274 356.756 235.106 356.756 232.432V136.802C356.756 134.128 354.619 131.96 351.983 131.96Z" fill="white"/>
<mask id="mask12_57_245" style="mask-type:luminance" maskUnits="userSpaceOnUse" x="329" y="142" width="18" height="88">
<path d="M346.017 142.854H329.909V229.405H346.017V142.854Z" fill="white"/>
</mask>
<g mask="url(#mask12_57_245)">
<path d="M343.631 142.854H332.296C330.978 142.854 329.909 143.938 329.909 145.275V154.354C329.909 155.691 330.978 156.775 332.296 156.775H343.631C344.949 156.775 346.017 155.691 346.017 154.354V145.275C346.017 143.938 344.949 142.854 343.631 142.854Z" fill="#C7D1D9"/>
<path d="M343.631 161.617H332.296C330.978 161.617 329.91 162.701 329.91 164.038V172.511C329.91 173.849 330.978 174.932 332.296 174.932H343.631C344.949 174.932 346.017 173.849 346.017 172.511V164.038C346.017 162.701 344.949 161.617 343.631 161.617Z" fill="#AFB9C5"/>
<path d="M343.631 179.774H332.296C330.978 179.774 329.91 180.858 329.91 182.195V190.669C329.91 192.006 330.978 193.09 332.296 193.09H343.631C344.949 193.09 346.017 192.006 346.017 190.669V182.195C346.017 180.858 344.949 179.774 343.631 179.774Z" fill="#C7D1D9"/>
<path d="M343.631 216.09H332.296C330.978 216.09 329.91 217.174 329.91 218.511V226.984C329.91 228.321 330.978 229.405 332.296 229.405H343.631C344.949 229.405 346.017 228.321 346.017 226.984V218.511C346.017 217.174 344.949 216.09 343.631 216.09Z" fill="#C7D1D9"/>
<path d="M343.631 197.932H332.296C330.978 197.932 329.91 199.016 329.91 200.353V208.827C329.91 210.164 330.978 211.248 332.296 211.248H343.631C344.949 211.248 346.017 210.164 346.017 208.827V200.353C346.017 199.016 344.949 197.932 343.631 197.932Z" fill="#C5CFD6"/>
</g>
</g>
<mask id="mask13_57_245" style="mask-type:luminance" maskUnits="userSpaceOnUse" x="194" y="86" width="116" height="154">
<path d="M309.03 86.5657H194.486V239.089H309.03V86.5657Z" fill="white"/>
</mask>
<g mask="url(#mask13_57_245)">
<mask id="mask14_57_245" style="mask-type:luminance" maskUnits="userSpaceOnUse" x="194" y="86" width="116" height="26">
<path d="M309.03 86.5657H194.486V111.986H309.03V86.5657Z" fill="white"/>
</mask>
<g mask="url(#mask14_57_245)">
<path d="M306.643 86.5657H196.872C195.554 86.5657 194.486 87.6496 194.486 88.9867V109.565C194.486 110.902 195.554 111.986 196.872 111.986H306.643C307.961 111.986 309.03 110.902 309.03 109.565V88.9867C309.03 87.6496 307.961 86.5657 306.643 86.5657Z" fill="white"/>
<mask id="mask15_57_245" style="mask-type:luminance" maskUnits="userSpaceOnUse" x="199" y="94" width="81" height="11">
<path d="M279.797 94.1921H199.855V104.36H279.797V94.1921Z" fill="white"/>
</mask>
<g mask="url(#mask15_57_245)">
<path d="M278.007 94.1921H201.645C200.657 94.1921 199.855 95.0051 199.855 96.0079V96.1895C199.855 97.1923 200.657 98.0052 201.645 98.0052H278.007C278.996 98.0052 279.797 97.1923 279.797 96.1895V96.0079C279.797 95.0051 278.996 94.1921 278.007 94.1921Z" fill="#C7D1D9"/>
<path d="M251.725 100.547H201.645C200.657 100.547 199.855 101.36 199.855 102.363V102.544C199.855 103.547 200.657 104.36 201.645 104.36H251.725C252.714 104.36 253.515 103.547 253.515 102.544V102.363C253.515 101.36 252.714 100.547 251.725 100.547Z" fill="#C7D1D9"/>
</g>
<path d="M296.788 103.513C299.095 103.513 300.964 101.616 300.964 99.2761C300.964 96.9362 299.095 95.0393 296.788 95.0393C294.482 95.0393 292.612 96.9362 292.612 99.2761C292.612 101.616 294.482 103.513 296.788 103.513Z" fill="#C7D1D9"/>
<path d="M296.788 101.092C297.777 101.092 298.578 100.279 298.578 99.276C298.578 98.2731 297.777 97.4602 296.788 97.4602C295.8 97.4602 294.999 98.2731 294.999 99.276C294.999 100.279 295.8 101.092 296.788 101.092Z" fill="#F2F2F2"/>
</g>
<mask id="mask16_57_245" style="mask-type:luminance" maskUnits="userSpaceOnUse" x="194" y="116" width="116" height="22">
<path d="M309.03 116.828H194.486V137.407H309.03V116.828Z" fill="white"/>
</mask>
<g mask="url(#mask16_57_245)">
<path d="M306.643 116.828H196.872C195.554 116.828 194.486 117.912 194.486 119.249V134.986C194.486 136.323 195.554 137.407 196.872 137.407H306.643C307.961 137.407 309.03 136.323 309.03 134.986V119.249C309.03 117.912 307.961 116.828 306.643 116.828Z" fill="white"/>
<mask id="mask17_57_245" style="mask-type:luminance" maskUnits="userSpaceOnUse" x="199" y="123" width="81" height="9">
<path d="M279.797 123.001H199.855V131.233H279.797V123.001Z" fill="white"/>
</mask>
<g mask="url(#mask17_57_245)">
<path d="M278.276 123.001H201.377C200.536 123.001 199.855 123.692 199.855 124.545C199.855 125.397 200.536 126.088 201.377 126.088H278.276C279.116 126.088 279.797 125.397 279.797 124.545C279.797 123.692 279.116 123.001 278.276 123.001Z" fill="#C7D1D9"/>
<path d="M251.994 128.146H201.377C200.536 128.146 199.855 128.837 199.855 129.69C199.855 130.542 200.536 131.233 201.377 131.233H251.994C252.834 131.233 253.515 130.542 253.515 129.69C253.515 128.837 252.834 128.146 251.994 128.146Z" fill="#C7D1D9"/>
</g>
<path d="M296.788 131.354C299.095 131.354 300.964 129.457 300.964 127.117C300.964 124.777 299.095 122.881 296.788 122.881C294.482 122.881 292.612 124.777 292.612 127.117C292.612 129.457 294.482 131.354 296.788 131.354Z" fill="#C7D1D9"/>
<path d="M296.788 128.933C297.777 128.933 298.578 128.12 298.578 127.117C298.578 126.114 297.777 125.302 296.788 125.302C295.8 125.302 294.999 126.114 294.999 127.117C294.999 128.12 295.8 128.933 296.788 128.933Z" fill="#F2F2F2"/>
</g>
<mask id="mask18_57_245" style="mask-type:luminance" maskUnits="userSpaceOnUse" x="194" y="142" width="116" height="21">
<path d="M309.03 142.249H194.486V162.827H309.03V142.249Z" fill="white"/>
</mask>
<g mask="url(#mask18_57_245)">
<path d="M306.643 142.249H196.872C195.554 142.249 194.486 143.333 194.486 144.67V160.406C194.486 161.743 195.554 162.827 196.872 162.827H306.643C307.961 162.827 309.03 161.743 309.03 160.406V144.67C309.03 143.333 307.961 142.249 306.643 142.249Z" fill="white"/>
<mask id="mask19_57_245" style="mask-type:luminance" maskUnits="userSpaceOnUse" x="199" y="148" width="81" height="9">
<path d="M279.797 148.422H199.855V156.654H279.797V148.422Z" fill="white"/>
</mask>
<g mask="url(#mask19_57_245)">
<path d="M278.276 148.422H201.377C200.536 148.422 199.855 149.113 199.855 149.966C199.855 150.818 200.536 151.509 201.377 151.509H278.276C279.116 151.509 279.797 150.818 279.797 149.966C279.797 149.113 279.116 148.422 278.276 148.422Z" fill="#C7D1D9"/>
<path d="M251.994 153.567H201.377C200.536 153.567 199.855 154.258 199.855 155.111C199.855 155.963 200.536 156.654 201.377 156.654H251.994C252.834 156.654 253.515 155.963 253.515 155.111C253.515 154.258 252.834 153.567 251.994 153.567Z" fill="#C7D1D9"/>
</g>
<path d="M296.788 156.775C299.095 156.775 300.964 154.878 300.964 152.538C300.964 150.198 299.095 148.301 296.788 148.301C294.482 148.301 292.612 150.198 292.612 152.538C292.612 154.878 294.482 156.775 296.788 156.775Z" fill="#C7D1D9"/>
<path d="M296.788 154.354C297.777 154.354 298.578 153.541 298.578 152.538C298.578 151.535 297.777 150.722 296.788 150.722C295.8 150.722 294.999 151.535 294.999 152.538C294.999 153.541 295.8 154.354 296.788 154.354Z" fill="#AFB9C5"/>
</g>
<mask id="mask20_57_245" style="mask-type:luminance" maskUnits="userSpaceOnUse" x="194" y="218" width="116" height="22">
<path d="M309.03 218.51H194.486V239.089H309.03V218.51Z" fill="white"/>
</mask>
<g mask="url(#mask20_57_245)">
<path d="M306.643 218.51H196.872C195.554 218.51 194.486 219.594 194.486 220.932V236.668C194.486 238.005 195.554 239.089 196.872 239.089H306.643C307.961 239.089 309.03 238.005 309.03 236.668V220.932C309.03 219.594 307.961 218.51 306.643 218.51Z" fill="white"/>
<mask id="mask21_57_245" style="mask-type:luminance" maskUnits="userSpaceOnUse" x="199" y="224" width="81" height="9">
<path d="M279.797 224.684H199.855V232.916H279.797V224.684Z" fill="white"/>
</mask>
<g mask="url(#mask21_57_245)">
<path d="M278.276 224.684H201.377C200.536 224.684 199.855 225.375 199.855 226.227C199.855 227.08 200.536 227.771 201.377 227.771H278.276C279.116 227.771 279.797 227.08 279.797 226.227C279.797 225.375 279.116 224.684 278.276 224.684Z" fill="#C7D1D9"/>
<path d="M251.994 229.829H201.377C200.536 229.829 199.855 230.52 199.855 231.372C199.855 232.225 200.536 232.916 201.377 232.916H251.994C252.834 232.916 253.515 232.225 253.515 231.372C253.515 230.52 252.834 229.829 251.994 229.829Z" fill="#C7D1D9"/>
</g>
<path d="M296.788 233.037C299.095 233.037 300.964 231.14 300.964 228.8C300.964 226.46 299.095 224.563 296.788 224.563C294.482 224.563 292.612 226.46 292.612 228.8C292.612 231.14 294.482 233.037 296.788 233.037Z" fill="#C7D1D9"/>
<path d="M296.788 230.616C297.777 230.616 298.578 229.803 298.578 228.8C298.578 227.797 297.777 226.984 296.788 226.984C295.8 226.984 294.999 227.797 294.999 228.8C294.999 229.803 295.8 230.616 296.788 230.616Z" fill="#F2F2F2"/>
</g>
<mask id="mask22_57_245" style="mask-type:luminance" maskUnits="userSpaceOnUse" x="194" y="193" width="116" height="21">
<path d="M309.03 193.09H194.486V213.668H309.03V193.09Z" fill="white"/>
</mask>
<g mask="url(#mask22_57_245)">
<path d="M306.643 193.09H196.872C195.554 193.09 194.486 194.174 194.486 195.511V211.247C194.486 212.584 195.554 213.668 196.872 213.668H306.643C307.961 213.668 309.03 212.584 309.03 211.247V195.511C309.03 194.174 307.961 193.09 306.643 193.09Z" fill="white"/>
<mask id="mask23_57_245" style="mask-type:luminance" maskUnits="userSpaceOnUse" x="199" y="199" width="81" height="9">
<path d="M279.797 199.263H199.855V207.495H279.797V199.263Z" fill="white"/>
</mask>
<g mask="url(#mask23_57_245)">
<path d="M278.276 199.263H201.377C200.536 199.263 199.855 199.954 199.855 200.807C199.855 201.659 200.536 202.35 201.377 202.35H278.276C279.116 202.35 279.797 201.659 279.797 200.807C279.797 199.954 279.116 199.263 278.276 199.263Z" fill="#C7D1D9"/>
<path d="M251.994 204.408H201.377C200.536 204.408 199.855 205.099 199.855 205.952C199.855 206.804 200.536 207.495 201.377 207.495H251.994C252.834 207.495 253.515 206.804 253.515 205.952C253.515 205.099 252.834 204.408 251.994 204.408Z" fill="#C7D1D9"/>
</g>
<path d="M296.788 207.616C299.095 207.616 300.964 205.719 300.964 203.379C300.964 201.039 299.095 199.143 296.788 199.143C294.482 199.143 292.612 201.039 292.612 203.379C292.612 205.719 294.482 207.616 296.788 207.616Z" fill="#C7D1D9"/>
<path d="M296.788 205.195C297.777 205.195 298.578 204.382 298.578 203.379C298.578 202.377 297.777 201.564 296.788 201.564C295.8 201.564 294.999 202.377 294.999 203.379C294.999 204.382 295.8 205.195 296.788 205.195Z" fill="#F2F2F2"/>
</g>
<mask id="mask24_57_245" style="mask-type:luminance" maskUnits="userSpaceOnUse" x="194" y="167" width="116" height="22">
<path d="M309.03 167.669H194.486V188.248H309.03V167.669Z" fill="white"/>
</mask>
<g mask="url(#mask24_57_245)">
<path d="M306.643 167.669H196.872C195.554 167.669 194.486 168.753 194.486 170.09V185.827C194.486 187.164 195.554 188.248 196.872 188.248H306.643C307.961 188.248 309.03 187.164 309.03 185.827V170.09C309.03 168.753 307.961 167.669 306.643 167.669Z" fill="white"/>
<mask id="mask25_57_245" style="mask-type:luminance" maskUnits="userSpaceOnUse" x="199" y="173" width="81" height="10">
<path d="M279.797 173.843H199.855V182.074H279.797V173.843Z" fill="white"/>
</mask>
<g mask="url(#mask25_57_245)">
<path d="M278.276 173.843H201.377C200.536 173.843 199.855 174.534 199.855 175.386C199.855 176.239 200.536 176.93 201.377 176.93H278.276C279.116 176.93 279.797 176.239 279.797 175.386C279.797 174.534 279.116 173.843 278.276 173.843Z" fill="#C7D1D9"/>
<path d="M251.994 178.988H201.377C200.536 178.988 199.855 179.679 199.855 180.531C199.855 181.383 200.536 182.074 201.377 182.074H251.994C252.834 182.074 253.515 181.383 253.515 180.531C253.515 179.679 252.834 178.988 251.994 178.988Z" fill="#C7D1D9"/>
</g>
<path d="M296.788 182.195C299.095 182.195 300.964 180.299 300.964 177.959C300.964 175.619 299.095 173.722 296.788 173.722C294.482 173.722 292.612 175.619 292.612 177.959C292.612 180.299 294.482 182.195 296.788 182.195Z" fill="#C7D1D9"/>
<path d="M296.788 179.774C297.777 179.774 298.578 178.961 298.578 177.959C298.578 176.956 297.777 176.143 296.788 176.143C295.8 176.143 294.999 176.956 294.999 177.959C294.999 178.961 295.8 179.774 296.788 179.774Z" fill="#F2F2F2"/>
</g>
</g>
</g>
<path fill-rule="evenodd" clip-rule="evenodd" d="M27.9882 199.88C37.978 216.969 49.6125 233.515 56.5997 252.198C56.3181 249.996 56.0198 247.796 55.6857 245.599C53.9127 233.954 51.7095 222.394 49.3936 210.848C48.2147 204.969 46.9679 199.112 45.6888 193.255C45.0003 190.109 44.3208 186.961 43.6192 183.819C43.4492 183.057 43.3031 181.727 43.0901 180.38C49.8804 203.1 56.4285 225.837 61.2184 249.104C61.8466 252.157 62.3817 255.205 62.8202 258.249C62.97 257.554 63.1173 256.86 63.279 256.168C65.2167 247.87 68.1238 239.637 71.5858 231.878C73.2401 228.168 75.1408 224.538 77.3792 221.156C78.7746 219.048 82.066 216.542 83.3385 214.384C76.3764 227.404 73.8624 243.696 69.842 257.852C68.8612 261.306 67.8739 264.755 66.9062 268.21C72.9687 255.813 82.375 245.628 95.4527 241.214C79.6224 251.879 70.1272 270.556 63.7288 289.657C63.708 289.884 63.6829 290.111 63.6614 290.338C65.5442 286.694 67.9156 283.399 71.13 281.09C78.0098 276.149 85.6413 277.589 92.3152 281.827C87.0773 278.432 77.6113 281.523 73.2043 284.974C70.0496 287.444 67.3537 290.757 65.0121 293.99C64.4513 294.765 63.6859 295.669 62.8769 296.634C61.7434 304.137 59.8958 311.589 57.2804 318.982C57.7123 316.86 57.3997 313.467 57.5196 311.885C57.5327 311.714 57.5435 311.542 57.556 311.371C57.1587 312.991 56.7745 314.591 56.4046 316.165C57.1396 313.161 57.5393 310.024 57.8513 306.856C57.9318 305.494 58.01 304.132 58.0929 302.77C58.0667 300.186 57.9623 297.591 57.7857 294.992C57.1593 292.466 56.4583 290.084 55.8802 288.103C53.7945 280.955 50.7365 274.106 46.972 267.716C43.5381 261.886 39.4271 256.605 34.6813 251.828C32.1231 249.254 29.4457 246.803 26.8058 244.317C25.8512 243.418 24.145 241.209 22.6697 240.057C33.4159 246.098 44.4771 252.634 52.3168 262.367C51.3975 258.768 50.3994 255.22 49.3434 251.744C43.9861 234.104 37.2215 215.823 27.9882 199.88Z" fill="#C7D1D9"/>
<path d="M60.8509 332.298C73.0417 332.298 82.9244 324.304 82.9244 314.443C82.9244 304.582 73.0417 296.588 60.8509 296.588C48.66 296.588 38.7773 304.582 38.7773 314.443C38.7773 324.304 48.66 332.298 60.8509 332.298Z" fill="#C5CFD6"/>
<path d="M415.221 42.6852C415.221 41.8496 414.553 41.1721 413.729 41.1721C412.906 41.1721 412.238 41.8496 412.238 42.6852V52.9745C412.238 53.8102 412.906 54.4877 413.729 54.4877C414.553 54.4877 415.221 53.8102 415.221 52.9745V42.6852Z" fill="#C7D1D9"/>
<path d="M422.976 33.6064C422.976 32.7707 422.308 32.0933 421.485 32.0933C420.661 32.0933 419.993 32.7707 419.993 33.6064V52.9744C419.993 53.8101 420.661 54.4876 421.485 54.4876C422.308 54.4876 422.976 53.8101 422.976 52.9744V33.6064Z" fill="#C7D1D9"/>
<path d="M430.732 29.3696C430.732 28.5339 430.064 27.8564 429.241 27.8564C428.417 27.8564 427.749 28.5339 427.749 29.3696V52.9744C427.749 53.8101 428.417 54.4875 429.241 54.4875C430.064 54.4875 430.732 53.8101 430.732 52.9744V29.3696Z" fill="#C7D1D9"/>
<path d="M437.891 33.6064C437.891 32.7707 437.223 32.0933 436.399 32.0933C435.576 32.0933 434.908 32.7707 434.908 33.6064V52.9744C434.908 53.8101 435.576 54.4876 436.399 54.4876C437.223 54.4876 437.891 53.8101 437.891 52.9744V33.6064Z" fill="#C7D1D9"/>
<path d="M445.647 25.1332C445.647 24.2976 444.979 23.6201 444.156 23.6201C443.332 23.6201 442.664 24.2976 442.664 25.1332V52.9748C442.664 53.8105 443.332 54.4879 444.156 54.4879C444.979 54.4879 445.647 53.8105 445.647 52.9748V25.1332Z" fill="#C5CFD6"/>
<path fill-rule="evenodd" clip-rule="evenodd" d="M0 171.871C0 165.899 4.83351 161.012 10.7385 161.012V171.871L3.39992 179.775C1.31248 177.842 0 175.008 0 171.871Z" fill="#F2F2F2"/>
<path fill-rule="evenodd" clip-rule="evenodd" d="M10.4907 171.301H21.4767C21.4767 174.145 20.3181 176.81 18.4866 178.746C16.4726 180.864 13.6042 182.196 10.4907 182.196C7.62288 182.196 4.99732 181.047 2.98267 179.231L10.4907 171.301Z" fill="#AFB9C5"/>
<path fill-rule="evenodd" clip-rule="evenodd" d="M21.4769 171.906C21.4769 165.915 16.6434 161.012 10.7385 161.012V171.906H21.4769ZM5.36924 161.012L9.66462 170.817L0 166.459C0.955724 163.918 3.10163 161.981 5.36924 161.012Z" fill="#C5CFD6"/>
<path fill-rule="evenodd" clip-rule="evenodd" d="M459.449 199.047C458.412 200.137 456.945 200.822 455.312 200.822C452.175 200.822 449.632 198.309 449.632 195.209C449.632 192.109 452.175 189.595 455.312 189.595V179.169C446.388 179.169 439.084 186.389 439.084 195.209C439.084 204.028 446.388 211.248 455.312 211.248C460 211.248 464.236 209.288 467.124 206.17L459.449 199.047Z" fill="#F2F2F2"/>
<path fill-rule="evenodd" clip-rule="evenodd" d="M455.192 179.17V189.792C458.306 189.792 460.83 192.353 460.83 195.511H471.3C471.3 186.525 464.05 179.17 455.192 179.17Z" fill="#AFB9C5"/>
<path fill-rule="evenodd" clip-rule="evenodd" d="M460.416 195.511C460.416 197.315 459.538 198.919 458.175 199.955L464.88 208.222C468.784 205.262 471.3 200.675 471.3 195.511H460.416Z" fill="#C5CFD6"/>
<path fill-rule="evenodd" clip-rule="evenodd" d="M379.946 30.5235C379.131 31.3672 377.975 31.8968 376.69 31.8968C374.221 31.8968 372.219 29.9528 372.219 27.5541C372.219 25.1555 374.221 23.2115 376.69 23.2115V15.1465C369.665 15.1465 363.915 20.7311 363.915 27.5541C363.915 34.3771 369.665 39.9618 376.69 39.9618C380.38 39.9618 383.715 38.4456 385.989 36.0337L379.946 30.5235Z" fill="#F2F2F2"/>
<path fill-rule="evenodd" clip-rule="evenodd" d="M376.443 15.1465V23.4082C378.864 23.4082 380.828 25.4001 380.828 27.8568H388.971C388.971 20.8674 383.332 15.1465 376.443 15.1465Z" fill="#AFB9C5"/>
<path fill-rule="evenodd" clip-rule="evenodd" d="M381.055 27.8567C381.055 29.2312 380.418 30.4532 379.426 31.2425L384.303 37.5407C387.142 35.2862 388.971 31.7908 388.971 27.8567H381.055Z" fill="#C5CFD6"/>
<path fill-rule="evenodd" clip-rule="evenodd" d="M45.3449 29.0585C45.3424 29.0647 45.3399 29.0709 45.3362 29.0784C45.3399 29.0722 45.3449 29.0473 45.3449 29.0585Z" fill="#C5CFD6"/>
<path fill-rule="evenodd" clip-rule="evenodd" d="M45.3392 29.0684C45.3392 29.0697 45.3379 29.0723 45.3379 29.0749C45.3379 29.0684 45.3495 29.0491 45.3392 29.0684Z" fill="#C5CFD6"/>
<path fill-rule="evenodd" clip-rule="evenodd" d="M45.3802 28.9656C45.3718 28.9898 45.3611 29.0128 45.3515 29.037C45.3563 29.0249 45.3611 29.0152 45.3658 29.0031C45.2418 29.3178 45.3205 29.1133 45.3802 28.9656Z" fill="#C5CFD6"/>
<path fill-rule="evenodd" clip-rule="evenodd" d="M45.3531 29.0388C45.3483 29.0496 45.3436 29.0615 45.3388 29.0722C45.3042 29.139 45.3531 29.0388 45.3531 29.0388Z" fill="#C5CFD6"/>
<path fill-rule="evenodd" clip-rule="evenodd" d="M45.3342 29.0773C45.3267 29.0923 45.369 29.0202 45.3342 29.0773V29.0773Z" fill="#C5CFD6"/>
<path fill-rule="evenodd" clip-rule="evenodd" d="M45.3389 29.0686L45.3418 29.0657C45.3403 29.0671 45.3403 29.0686 45.3389 29.0686Z" fill="#C5CFD6"/>
<path d="M68.6067 0.620361H22.0733C20.7554 0.620361 19.687 1.70428 19.687 3.04137V32.6987C19.687 34.0358 20.7554 35.1197 22.0733 35.1197H68.6067C69.9247 35.1197 70.9931 34.0358 70.9931 32.6987V3.04137C70.9931 1.70428 69.9247 0.620361 68.6067 0.620361Z" fill="#C7D1D9"/>
<path fill-rule="evenodd" clip-rule="evenodd" d="M38.8971 10.3042L23.8633 35.1195H53.931L38.8971 10.3042Z" fill="#AFB9C5"/>
<path fill-rule="evenodd" clip-rule="evenodd" d="M53.6627 16.9219L40.5081 35.1198H66.8173L53.6627 16.9219Z" fill="#C5CFD6"/>
<path d="M59.6579 16.9623C62.2938 16.9623 64.4306 14.7945 64.4306 12.1203C64.4306 9.44616 62.2938 7.27832 59.6579 7.27832C57.022 7.27832 54.8853 9.44616 54.8853 12.1203C54.8853 14.7945 57.022 16.9623 59.6579 16.9623Z" fill="white"/>
<path fill-rule="evenodd" clip-rule="evenodd" d="M390.757 260.87C390.76 260.877 390.762 260.883 390.766 260.89C390.762 260.884 390.757 260.859 390.757 260.87Z" fill="#C5CFD6"/>
<path fill-rule="evenodd" clip-rule="evenodd" d="M390.763 260.88C390.763 260.881 390.764 260.884 390.764 260.886C390.764 260.88 390.752 260.86 390.763 260.88Z" fill="#C5CFD6"/>
<path fill-rule="evenodd" clip-rule="evenodd" d="M390.722 260.777C390.73 260.801 390.741 260.824 390.75 260.848C390.746 260.836 390.741 260.826 390.736 260.814C390.86 261.129 390.781 260.925 390.722 260.777Z" fill="#C5CFD6"/>
<path fill-rule="evenodd" clip-rule="evenodd" d="M390.748 260.85C390.753 260.861 390.758 260.873 390.763 260.884C390.797 260.95 390.748 260.85 390.748 260.85Z" fill="#C5CFD6"/>
<path fill-rule="evenodd" clip-rule="evenodd" d="M390.768 260.889C390.733 260.832 390.775 260.904 390.768 260.889V260.889Z" fill="#C5CFD6"/>
<path fill-rule="evenodd" clip-rule="evenodd" d="M390.763 260.88L390.76 260.877C390.762 260.879 390.762 260.88 390.763 260.88Z" fill="#C5CFD6"/>
<path d="M350.79 214.274H430.732C432.05 214.274 433.119 215.358 433.119 216.695V268.747C433.119 270.084 432.05 271.168 430.732 271.168H350.79C349.472 271.168 348.404 270.084 348.404 268.747V216.695C348.404 215.358 349.472 214.274 350.79 214.274Z" fill="#C7D1D9"/>
<path fill-rule="evenodd" clip-rule="evenodd" d="M401.663 230.616L426.155 271.168H377.17L401.663 230.616Z" fill="#AFB9C5"/>
<path fill-rule="evenodd" clip-rule="evenodd" d="M376.41 241.479L398.063 271.168H354.757L376.41 241.479Z" fill="#C5CFD6"/>
<path d="M367.196 241.511C362.748 241.511 359.143 237.853 359.143 233.34C359.143 228.827 362.748 225.169 367.196 225.169C371.644 225.169 375.25 228.827 375.25 233.34C375.25 237.853 371.644 241.511 367.196 241.511Z" fill="white"/>
<path fill-rule="evenodd" clip-rule="evenodd" d="M248.737 135.739C252.6 138.102 256.396 139.243 258.177 138.777C262.645 137.609 263.056 121.026 259.599 114.489C256.142 107.951 238.37 105.102 237.474 118.055C237.163 122.55 239.024 126.562 241.773 129.836L236.844 153.144H251.161L248.737 135.739Z" fill="#D4A181"/>
<path fill-rule="evenodd" clip-rule="evenodd" d="M253.944 107.369C251.987 106.763 249.147 106.558 247.952 106.697C248.632 105.045 248.902 103.204 248.682 101.412C248.468 99.6711 247.701 98.1884 246.992 96.6347C246.665 95.9186 246.294 95.2063 245.742 94.6586C245.179 94.1005 244.467 93.7322 243.72 93.5564C242.955 93.3765 242.156 93.3915 241.39 93.5548C241.052 93.627 240.748 93.7841 240.416 93.8714C240.076 93.9609 239.911 93.7449 239.664 93.5278C239.069 93.0048 238.196 92.7466 237.444 92.6542C236.599 92.5506 235.723 92.6798 234.917 92.9615C234.133 93.2357 233.38 93.6809 232.813 94.3296C232.561 94.6183 232.332 94.947 232.183 95.3098C232.122 95.4587 232.112 95.547 231.965 95.6015C231.83 95.652 231.672 95.6535 231.532 95.7015C230.18 96.166 229.024 97.2256 228.395 98.5861C228.028 99.3799 227.854 100.777 227.902 102.344C227.949 103.91 229.343 107.997 230.647 109.488C231.811 110.818 233.522 111.696 235.172 112.081C234.077 113.351 233.347 114.939 232.808 116.554C232.222 118.309 231.859 120.131 231.725 121.989C231.598 123.753 231.586 125.619 231.994 127.346C232.376 128.961 233.191 130.286 234.553 131.126C235.177 131.511 235.848 131.8 236.523 132.065C237.188 132.325 237.855 132.579 238.552 132.725C239.871 133.001 241.391 132.954 242.407 131.889C242.773 131.505 243.175 131.022 243.443 130.553C243.539 130.385 243.597 130.274 243.48 130.11C243.34 129.912 243.114 129.761 242.934 129.606C241.91 128.726 241.276 127.55 241.117 126.153C240.954 124.735 241.33 122.905 242.688 122.286C244.365 121.523 246.212 122.399 247.703 123.216C248.336 120.948 249.637 118.906 251.677 117.865C253.933 116.714 256.522 116.579 258.84 115.592C259.444 115.334 260.06 115.042 260.505 114.518C260.69 114.299 260.908 114.014 260.983 113.724C261.08 113.344 260.838 113.024 260.651 112.728C259.66 111.154 255.9 107.974 253.944 107.369Z" fill="#002743"/>
<path fill-rule="evenodd" clip-rule="evenodd" d="M232.071 203.38L254.521 277.84L265.396 341.164H273.923L262.431 203.38H232.071Z" fill="#D4A181"/>
<path fill-rule="evenodd" clip-rule="evenodd" d="M232.071 203.38L254.521 277.84L265.396 341.164H273.923L262.431 203.38H232.071Z" fill="black" fill-opacity="0.1"/>
<path fill-rule="evenodd" clip-rule="evenodd" d="M224.039 203.38C225.564 244.263 223.77 265.351 223.428 269.065C223.087 272.78 218.414 296.864 207.35 342.411L216.436 339.246C233.921 297.472 239.879 275.761 241.884 270.276C243.89 264.791 249.216 242.492 257.863 203.38H224.039Z" fill="#D4A181"/>
<path fill-rule="evenodd" clip-rule="evenodd" d="M209.072 338.523C208.432 338.238 207.672 338.527 207.434 339.193C207 340.408 206.417 342.23 206.417 343.257C206.417 344.894 206.955 348.035 206.955 348.035C208.827 348.035 240.603 348.035 240.603 348.035C240.603 348.035 241.915 343.636 239.089 343.285C236.263 342.935 234.394 342.652 234.394 342.652L218.754 335.578C218.447 335.439 218.088 335.585 217.96 335.9L216.954 338.375C216.954 338.375 214.339 339.613 212.703 339.613C211.707 339.613 210.143 339.001 209.072 338.523Z" fill="#E4E4E4"/>
<path fill-rule="evenodd" clip-rule="evenodd" d="M265.151 338.523C264.512 338.238 263.752 338.527 263.514 339.193C263.079 340.408 262.496 342.23 262.496 343.257C262.496 344.894 263.034 348.035 263.034 348.035C264.906 348.035 296.682 348.035 296.682 348.035C296.682 348.035 297.994 343.636 295.168 343.285C292.342 342.935 290.473 342.652 290.473 342.652L274.834 335.578C274.526 335.439 274.167 335.585 274.039 335.9L273.034 338.375C273.034 338.375 270.418 339.613 268.783 339.613C267.787 339.613 266.223 339.001 265.151 338.523Z" fill="#E4E4E4"/>
<path fill-rule="evenodd" clip-rule="evenodd" d="M229.088 203.38L238.633 241.317H267.788L263.441 203.38H229.088Z" fill="#00112C"/>
<path fill-rule="evenodd" clip-rule="evenodd" d="M223.719 203.38C219.007 217.707 221.929 241.317 221.929 241.317H251.68L259.862 203.38H223.719Z" fill="#002743"/>
<path fill-rule="evenodd" clip-rule="evenodd" d="M301.496 210.496L284.596 193.77L278.983 203.623L296.557 214.135C300.963 221.177 303.551 224.219 304.321 223.263C304.97 222.456 304.672 221.572 304.398 220.758C304.185 220.124 303.986 219.532 304.259 219.052C304.884 217.955 308.412 218.583 311.735 219.324C315.059 220.065 314.29 218.409 313.583 217.545C310.442 214.973 306.414 212.623 301.496 210.496ZM201.882 234.797C203.631 231.199 209.584 196.128 209.584 196.128L222.051 196.178C222.051 196.178 210.505 233.995 209.584 236.309C208.389 239.314 210.419 243.681 211.796 246.643C212.01 247.101 212.207 247.525 212.374 247.906C210.464 248.773 209.546 247.725 208.578 246.62C207.485 245.371 206.329 244.051 203.606 245.335C202.555 245.832 201.559 246.418 200.587 246.992C197.228 248.972 194.143 250.792 189.945 248.164C189.28 247.748 188.551 246.18 190.313 244.954C194.702 241.901 201.028 236.556 201.882 234.797Z" fill="#D4A181"/>
<path fill-rule="evenodd" clip-rule="evenodd" d="M245.013 143.056L250.172 142.158C259.054 164.667 274.56 185.12 296.691 203.516L279.967 224.128C257.839 197.935 244.199 170.911 245.013 143.056Z" fill="#007479"/>
<path fill-rule="evenodd" clip-rule="evenodd" d="M224 208.61H269.937C269.937 208.61 253.973 169.231 253.973 141.706L240.116 139.611C229.226 157.381 226.151 179.258 224 208.61Z" fill="#C7D1D9"/>
<path fill-rule="evenodd" clip-rule="evenodd" d="M201.645 228.8C206.669 171.299 238.337 139.828 238.337 139.828L238.348 139.838C238.349 139.835 238.352 139.831 238.354 139.828H239.258C240.881 139.885 244.204 140.033 244.204 140.033L247.552 149.74C248.083 167.494 253.757 221.299 253.757 221.299H223.688C223.74 223.766 223.853 226.267 224.035 228.8H201.645Z" fill="#00ACB0"/>
<path fill-rule="evenodd" clip-rule="evenodd" d="M223.693 221.537C223.453 210.794 224.393 200.707 225.96 191.579C226.78 202.411 228.493 215.444 232.07 221.537H223.693Z" fill="black" fill-opacity="0.1"/>
<path fill-rule="evenodd" clip-rule="evenodd" d="M230.347 202.774L245.195 195.771V202.774H230.347Z" fill="white" fill-opacity="0.2"/>
</svg>
